<?xml version="1.0" encoding="UTF-8" standalone="no"?>
<!DOCTYPE svg PUBLIC "-//W3C//DTD SVG 1.1//EN" "http://www.w3.org/Graphics/SVG/1.1/DTD/svg11.dtd">
<svg width="100%" height="100%" viewBox="0 0 492 358" version="1.1" xmlns="http://www.w3.org/2000/svg" xmlns:xlink="http://www.w3.org/1999/xlink" xml:space="preserve" xmlns:serif="http://www.serif.com/" style="fill-rule:evenodd;clip-rule:evenodd;stroke-linejoin:round;stroke-miterlimit:2;">
    <g transform="matrix(1,0,0,1,-516.314751,-316.674024)">
        <g transform="matrix(1.482422,0,0,1.482422,12,-1)">
            <path d="M614.616,215.106C616.123,215.822 616.057,215.819 617.62,216.402C618.961,217.724 618.965,217.704 619.068,217.829C619.954,218.899 620.166,226.08 619.083,227.161C614.643,231.595 613.799,229.669 607.552,229.834C605.933,229.697 606.016,229.703 604.449,229.83C602.801,229.781 601.154,229.732 599.507,229.683C596.997,229.54 597.074,229.532 594.491,229.683C592.843,229.731 591.195,229.778 589.548,229.826C587.92,229.679 588.002,229.687 586.453,229.824C585.501,229.805 581.502,229.723 574.554,229.836C573.356,229.701 567.506,229.042 559.473,229.771L556.507,229.677C552.943,229.56 552.991,229.605 549.448,229.835C546.148,229.829 542.849,229.824 539.549,229.819C537.98,229.684 538.064,229.678 536.454,229.816C532.97,229.691 533.058,229.722 529.548,229.821C527.211,229.557 524.428,229.367 520.453,229.824L518.543,229.811C516.992,229.672 517.073,229.665 515.451,229.822C513.15,229.823 510.85,229.824 508.549,229.824C507.182,229.827 505.814,229.83 504.447,229.832C502.8,229.778 501.154,229.724 499.508,229.67C496.895,229.515 496.988,229.551 494.45,229.825L491.549,229.821C487.99,229.593 488.046,229.587 484.45,229.822L481.547,229.822C479.969,229.672 480.052,229.662 478.478,229.764L477.528,229.773C474.946,229.54 475.019,229.556 472.448,229.83L467.552,229.828C464.698,229.667 464.749,229.463 461.453,229.823L459.548,229.821C458.18,229.824 456.813,229.827 455.446,229.83C453.8,229.779 452.154,229.728 450.507,229.677C447.951,229.521 448.04,229.544 445.452,229.826C444.801,229.802 444.87,229.81 440.53,229.77C434.476,229.55 434.542,229.591 428.492,229.68C426.512,229.731 424.532,229.782 422.552,229.833C414.967,229.503 415.028,228.974 407.45,229.829C399.464,229.607 399.555,229.81 391.509,229.69C388.911,229.544 389.005,229.577 386.448,229.836L381.557,229.842C378.475,229.495 378.558,229.494 375.493,229.694C372.926,229.628 372.99,229.568 370.449,229.822C368.804,229.852 368.847,229.694 367.346,230.227C365.437,230.256 365.495,230.299 363.693,230.935C355.825,235.025 356.831,239.992 356.88,275.498C357.047,396.01 356.336,396.214 357.766,399.402C362.386,409.699 372.345,408.116 389.499,408.113C640.437,408.077 640.532,408.364 644.634,406.924C645.054,406.708 647.999,405.195 649.391,403.421C654.003,397.544 652.976,396.831 652.981,363.5C652.996,271.269 652.747,270.783 654.389,269.372C657.311,266.861 657.609,267.565 661.499,267.348C661.818,267.451 663.632,268.034 665.546,268.436C669.056,271.249 668.728,271.748 668.689,278.503C668.226,358.749 669.605,395.131 667.444,401.481C666.358,404.673 668.141,405.438 665.563,407.55C661.803,410.631 660.031,422.851 634.501,422.547C632.948,422.121 632.991,422.149 631.498,422.644C626.168,422.654 620.838,422.665 615.508,422.676C613.499,421.862 613.47,421.875 611.492,422.673C593.495,422.672 575.498,422.67 557.501,422.669C554.545,421.535 554.455,421.375 551.491,422.677C542.163,422.675 532.836,422.672 523.508,422.67C521.493,421.866 521.466,421.882 519.492,422.673C515.497,422.673 511.503,422.673 507.509,422.673C505.059,421.69 505.017,421.995 502.501,422.666L501.508,422.67C499.492,421.865 499.464,421.88 497.492,422.672C495.164,422.671 492.836,422.67 490.507,422.669C488.488,421.86 488.46,421.879 486.493,422.666L480.509,422.673C478.496,421.866 478.468,421.88 476.492,422.67C442.162,422.673 407.832,422.676 373.501,422.679C370.505,421.864 370.478,421.87 367.497,422.667C357.956,421.523 351.098,416.936 349.845,416.099C348.053,414.9 341.922,404.543 341.939,404.451C342.518,401.442 341.803,401.514 341.336,399.548C341.267,397.519 341.129,395.782 341.103,395.456C340.931,393.154 341.005,391.851 341.022,391.538C341.195,388.472 340.799,388.578 340.566,385.482C340.973,383.573 341.057,383.64 341.078,382.464C340.869,375.44 341.478,347.313 340.882,334.428C341.022,329.833 341.078,329.845 341.081,329.446C340.938,318.32 341.422,266.275 340.866,262.395C340.933,261.763 341.1,260.178 341.088,254.445C340.749,247.38 341.172,247.453 340.865,240.403C341.064,239.43 341.264,238.456 341.463,237.483C341.768,236.535 343.27,228.797 346.473,225.476C357.293,214.259 359.737,214.439 400.5,214.429C613.061,214.376 613.106,214.664 614.616,215.106Z" style="fill:rgb(254,83,0);fill-opacity:0.98;"/>
        </g>
        <g transform="matrix(1.482422,0,0,1.482422,12,-1)">
            <path d="M468.875,318.665C469.302,317.557 472.275,309.834 473.134,304.442C474.347,296.829 475.042,297.09 475.135,296.437C476.374,287.723 477.786,287.18 479.332,279.465C480.939,271.445 489.941,269.612 495.136,273.862C499.026,277.043 513.887,343.553 516.412,351.531C518.543,358.261 518.456,363.672 518.871,364.173C520.194,365.773 520.678,359.945 520.711,359.548C520.825,358.825 520.94,358.102 521.054,357.379C522.527,351.856 522.431,351.893 524.596,342.532C524.628,342.393 526.137,337.861 526.272,337.455C526.357,337.161 526.827,335.542 526.751,333.661C530.664,323.697 529.495,322.829 533.665,319.731C533.708,319.699 538.714,318.533 539.466,318.677C547.936,320.297 546.495,323.593 554.155,330.862C555.926,332.542 556.313,332.109 604.498,332.152C627.706,332.173 631.599,331.146 634.111,335.698C635.342,337.93 635.201,345.25 629.549,345.814C616.039,347.163 552.154,346.946 547.429,345.846C543.046,344.825 542.311,339.262 540.633,343.518C540.617,343.746 540.496,343.67 540.233,346.342C538.015,351.602 530.876,386.705 527.9,390.733C526.645,392.432 526.199,395.36 517.478,394.746C509.197,394.162 509.673,385.71 506.57,376.477C506.117,375.127 506.645,374.997 501.752,359.338C501.821,357.458 501.351,355.84 501.266,355.546C500.074,352.06 500.607,352.003 499.45,348.53C499.127,347.574 499.468,347.562 499.148,346.614C499.09,346.444 499.081,346.461 498.249,344.556C498.187,343.393 498.078,343.469 497.445,341.501L497.35,340.518C493.491,326.196 493.454,325.838 493.319,324.526C493.299,324.336 490.61,313.341 490.223,312.599C489.637,311.474 489.875,302.051 487.94,304.85C487.253,305.842 488.953,306.226 484.975,319.639C483.97,323.026 484.546,323.069 483.42,326.482C482.611,328.472 482.588,328.424 482.633,330.548C480.741,336.072 481.159,338.77 479.786,341.603C477.792,345.719 477.693,356.147 473.903,360.809C469.702,365.976 461.179,367.921 455.889,357.303C452.783,351.069 453.334,350.885 450.202,344.646C450.033,344.309 448.815,343.153 448.634,342.435C447.744,338.912 447.127,339.156 446.384,335.606C446.103,335.666 445.821,335.726 445.54,335.785C445.411,336.011 444.894,335.473 444.765,335.698C444.322,336.472 444.375,337.439 444.107,338.289C443.335,340.738 440.951,345.223 438.541,345.664C433.973,346.501 432.397,346.789 380.5,346.576C368.052,346.525 370.733,335.972 373.557,333.579C376.923,330.727 409.624,332.705 427.479,332.119C431.065,332.001 431.202,327.482 438.839,314.712C441.662,309.991 449.259,309.797 451.67,312.305C455.95,316.758 455.465,317.08 458.115,322.69C464.683,336.589 462.882,337.306 463.806,338.258C465.371,339.87 465.51,335.767 465.519,335.508C465.611,332.791 468.19,323.941 468.397,321.491C468.843,320.092 468.998,320.174 468.875,318.665Z" style="fill:rgb(254,82,0);fill-opacity:0.99;"/>
        </g>
        <g transform="matrix(1.482422,0,0,1.482422,12,-1)">
            <path d="M549.538,436.471C549.623,436.617 549.248,438.517 552.49,438.703C556.09,438.909 562.625,438.455 563.504,438.394C565.817,438.416 579.42,435.986 577.833,449.547C576.855,457.903 562.202,453.628 555.478,455.412C553.856,455.842 553.854,454.421 534.516,454.907C517.201,455.342 488.232,454.679 484.472,455.335C483.925,455.43 473.645,454.053 468.478,455.412C467.875,455.57 457.523,455.124 456.571,455.083C437.419,454.256 416.832,458.915 418.405,446.488C419.673,436.469 431.765,438.387 432.495,438.376C434.498,438.376 436.502,438.375 438.505,438.375L440.494,438.372C444.904,438.596 444.736,437.798 445.419,437.426C450.098,426.521 455.511,430.842 467.498,430.044C469.594,429.904 505.081,430.716 510.528,429.654C512.175,429.333 512.17,430.148 531.5,430.136C536.99,430.133 543.496,429.69 545.591,431.356C548.161,433.401 547.738,433.704 549.538,436.471Z" style="fill:rgb(254,83,0);fill-opacity:0.99;"/>
        </g>
        <g transform="matrix(1.482422,0,0,1.482422,12,-1)">
            <path d="M629.064,245.667C628.643,245.217 628.441,245.735 627.994,245.257C627.95,245.211 627.826,245.077 627.932,244.458C628.534,240.957 627.021,241.006 627.621,237.527C628.875,230.257 628.577,230.239 628.881,229.68C639.49,210.19 658.906,216.887 664.58,222.414C676.037,233.573 671.877,245.495 667.157,251.264C657.698,262.824 640.006,258.927 635.482,254.52C630.815,249.973 630.906,249.889 630.473,249.526C630.208,247.467 629.944,247.618 629.064,245.667Z" style="fill:rgb(254,83,0);fill-opacity:0.98;"/>
        </g>
        <g transform="matrix(1.482422,0,0,1.482422,12,-1)">
            <path d="M419.403,238.396C422.091,236.009 422.306,236.331 426.507,236.377C434.715,236.467 434.388,247.771 432.267,250.313C424.704,259.382 409.998,247.852 419.403,238.396Z" style="fill:rgb(254,85,0);fill-opacity:0.98;"/>
        </g>
        <g transform="matrix(1.482422,0,0,1.482422,12,-1)">
            <path d="M410.829,244.481C409.924,258.928 389.247,255.565 394.584,240.544C396.071,236.359 403.472,235.61 405.443,236.633C410.002,239.001 409.842,239.458 410.829,244.481Z" style="fill:rgb(254,84,0);fill-opacity:0.98;"/>
        </g>
        <g transform="matrix(1.482422,0,0,1.482422,12,-1)">
            <path d="M385.573,238.304C386.063,240.617 386.19,240.499 387.546,242.489C388.107,251.084 385.746,251.12 384.646,251.725C371.831,258.768 368.511,243.614 372.47,239.474C377.988,233.703 381.281,236.686 385.573,238.304Z" style="fill:rgb(254,84,0);fill-opacity:0.98;"/>
        </g>
        <g transform="matrix(1.482422,0,0,1.482422,12,-1)">
            <path d="M549.538,436.471C551.76,438.045 556.842,437.275 557.472,437.18C558.164,437.075 558.125,437.18 563.504,438.394C562.625,438.455 556.09,438.909 552.49,438.703C549.248,438.517 549.623,436.617 549.538,436.471Z" style="fill:rgb(222,78,0);fill-opacity:0.1;"/>
        </g>
        <g transform="matrix(1.482422,0,0,1.482422,12,-1)">
            <path d="M520.453,229.824C524.428,229.367 527.211,229.557 529.548,229.821C528.591,231.557 528.514,231.664 526.5,231.645C526.185,231.642 526.284,231.715 522.563,231.746C521.921,231.242 521.279,230.738 520.637,230.234L520.453,229.824Z" style="fill:rgb(186,66,0);fill-opacity:0.05;"/>
        </g>
        <g transform="matrix(1.482422,0,0,1.482422,12,-1)">
            <path d="M484.45,229.822C488.046,229.587 487.99,229.593 491.549,229.821C489.52,232.61 487.429,233.859 484.45,229.822Z" style="fill:rgb(241,84,0);fill-opacity:0.05;"/>
        </g>
        <g transform="matrix(1.482422,0,0,1.482422,12,-1)">
            <path d="M549.448,229.835C552.991,229.605 552.943,229.56 556.507,229.677C556.313,230.058 555.665,230.052 555.471,230.432C555.388,230.595 556.079,231.649 554.455,232.012C551.466,232.68 551.287,232.269 549.448,229.835Z" style="fill:rgb(246,87,0);fill-opacity:0.07;"/>
        </g>
        <g transform="matrix(1.482422,0,0,1.482422,12,-1)">
            <path d="M375.493,229.694C378.558,229.494 378.475,229.495 381.557,229.842C381.291,230.18 378.144,234.181 376.463,231.571C376.116,231.032 376.819,230.994 376.529,230.432C376.193,229.781 375.809,230.305 375.493,229.694Z" style="fill:rgb(246,87,0);fill-opacity:0.08;"/>
        </g>
        <g transform="matrix(1.482422,0,0,1.482422,12,-1)">
            <path d="M461.453,229.823C464.749,229.463 464.698,229.667 467.552,229.828C467.041,230.742 467.466,231.735 463.562,231.742C462.921,231.239 462.279,230.736 461.638,230.234L461.453,229.823Z" style="fill:rgb(193,67,0);fill-opacity:0.08;"/>
        </g>
        <g transform="matrix(1.482422,0,0,1.482422,12,-1)">
            <path d="M472.448,229.83C475.019,229.556 474.946,229.54 477.528,229.773C474.712,234.501 473.04,230.632 472.448,229.83Z" style="fill:rgb(245,86,0);fill-opacity:0.06;"/>
        </g>
        <g transform="matrix(1.482422,0,0,1.482422,12,-1)">
            <path d="M494.45,229.825C496.988,229.551 496.895,229.515 499.508,229.67C499.193,230.288 498.813,229.791 498.478,230.448C498.196,231 498.885,231.039 498.538,231.573C497.213,233.612 494.659,230.112 494.45,229.825Z" style="fill:rgb(245,86,0);fill-opacity:0.09;"/>
        </g>
        <g transform="matrix(1.482422,0,0,1.482422,12,-1)">
            <path d="M445.452,229.826C448.04,229.544 447.951,229.521 450.507,229.677C450.172,230.333 449.781,229.801 449.466,230.418C449.172,230.992 449.882,231.027 449.538,231.573C448.268,233.588 445.665,230.11 445.452,229.826Z" style="fill:rgb(244,87,0);fill-opacity:0.09;"/>
        </g>
        <g transform="matrix(1.482422,0,0,1.482422,12,-1)">
            <path d="M386.448,229.836C389.005,229.577 388.911,229.544 391.509,229.69C391.195,230.301 390.767,229.758 390.448,230.376C390.136,230.982 390.878,231.011 390.539,231.574C389.31,233.613 386.663,230.12 386.448,229.836Z" style="fill:rgb(244,86,1);fill-opacity:0.09;"/>
        </g>
        <g transform="matrix(1.482422,0,0,1.482422,12,-1)">
            <path d="M594.491,229.683C597.074,229.532 596.997,229.54 599.507,229.683C599.312,230.065 598.676,230.076 598.482,230.457C598.399,230.619 599.105,231.577 597.568,231.913C597.402,231.949 595.903,232.276 595.462,231.573C595.118,231.026 595.833,230.991 595.536,230.414C595.199,229.758 594.808,230.299 594.491,229.683Z" style="fill:rgb(254,90,0);fill-opacity:0.11;"/>
        </g>
        <g transform="matrix(1.482422,0,0,1.482422,12,-1)">
            <path d="M504.447,229.832C505.814,229.83 507.182,229.827 508.549,229.824C507.241,231.578 507.454,231.919 506.5,231.919C505.623,231.92 505.821,231.626 504.447,229.832Z" style="fill:rgb(234,82,0);fill-opacity:0.08;"/>
        </g>
        <g transform="matrix(1.482422,0,0,1.482422,12,-1)">
            <path d="M455.446,229.83C456.813,229.827 458.18,229.824 459.548,229.821C458.219,231.589 458.422,231.919 457.5,231.92C456.601,231.92 456.804,231.614 455.446,229.83Z" style="fill:rgb(234,83,0);fill-opacity:0.08;"/>
        </g>
        <g transform="matrix(1.482422,0,0,1.482422,12,-1)">
            <path d="M385.573,238.304C388.467,238.601 388.001,239.613 387.546,242.489C386.19,240.499 386.063,240.617 385.573,238.304Z" style="fill:rgb(245,84,0);fill-opacity:0.08;"/>
        </g>
        <g transform="matrix(1.482422,0,0,1.482422,12,-1)">
            <path d="M341.088,254.445C341.1,260.178 340.933,261.763 340.866,262.395C339.566,257.557 340.449,256.218 341.088,254.445Z" style="fill:rgb(202,71,2);fill-opacity:0.25;"/>
        </g>
        <g transform="matrix(1.482422,0,0,1.482422,12,-1)">
            <path d="M483.42,326.482C483.608,326.778 482.974,327.206 483.162,327.503C483.463,327.98 486.235,328.223 483.867,329.716C483.867,329.716 482.732,330.482 482.633,330.548C482.588,328.424 482.611,328.472 483.42,326.482Z" style="fill:rgb(207,70,0);fill-opacity:0.1;"/>
        </g>
        <g transform="matrix(1.482422,0,0,1.482422,12,-1)">
            <path d="M629.064,245.667C629.944,247.618 630.208,247.467 630.473,249.526C630.377,249.462 629.272,248.728 629.272,248.728C627.271,247.415 628.853,246.721 629.064,245.667Z" style="fill:rgb(220,78,0);fill-opacity:0.08;"/>
        </g>
        <g transform="matrix(1.482422,0,0,1.482422,12,-1)">
            <path d="M498.249,344.556C499.081,346.461 499.09,346.444 499.148,346.614C499.468,347.562 499.127,347.574 499.45,348.53C499.366,348.454 498.401,347.581 498.401,347.581C497.572,347.07 497.247,347.251 497.385,346.484C497.415,346.318 497.449,346.341 498.249,344.556Z" style="fill:rgb(220,77,0);fill-opacity:0.12;"/>
        </g>
        <g transform="matrix(1.482422,0,0,1.482422,12,-1)">
            <path d="M367.497,422.667C370.478,421.87 370.505,421.864 373.501,422.679L372.509,422.685C372.188,422.67 370.5,422.594 368.491,422.676L367.497,422.667Z" style="fill:rgb(212,76,3);fill-opacity:0.24;"/>
        </g>
        <g transform="matrix(1.482422,0,0,1.482422,12,-1)">
            <path d="M363.693,230.935C365.495,230.299 365.437,230.256 367.346,230.227C366.131,231.947 365.807,231.729 363.693,230.935Z" style="fill:rgb(221,78,0);fill-opacity:0.04;"/>
        </g>
        <g transform="matrix(1.482422,0,0,1.482422,12,-1)">
            <path d="M614.616,215.106C616.346,214.407 616.326,214.382 616.485,214.352C617.982,214.063 617.54,214.874 617.62,216.402C616.057,215.819 616.123,215.822 614.616,215.106Z" style="fill:rgb(222,85,8);fill-opacity:0.05;"/>
        </g>
        <g transform="matrix(1.482422,0,0,1.482422,12,-1)">
            <path d="M551.491,422.677C554.455,421.375 554.545,421.535 557.501,422.669L556.437,423.002C553.953,422.495 553.983,422.341 551.491,422.677Z" style="fill:rgb(220,78,0);fill-opacity:0.24;"/>
        </g>
        <g transform="matrix(1.482422,0,0,1.482422,12,-1)">
            <path d="M502.501,422.666C505.017,421.995 505.059,421.69 507.509,422.673C505.5,422.582 503.813,422.657 503.492,422.672L502.501,422.666Z" style="fill:rgb(218,77,0);fill-opacity:0.24;"/>
        </g>
        <g transform="matrix(1.482422,0,0,1.482422,12,-1)">
            <path d="M432.495,438.376C435.504,437.563 435.502,437.812 438.505,438.375C436.502,438.375 434.498,438.376 432.495,438.376Z" style="fill:rgb(189,66,0);fill-opacity:0.22;"/>
        </g>
        <g transform="matrix(1.482422,0,0,1.482422,12,-1)">
            <path d="M478.478,229.764C479.922,230.234 479.855,230.237 481.371,230.263C479.436,233.529 479.146,230.358 478.478,229.764Z" style="fill:rgb(212,74,0);fill-opacity:0.05;"/>
        </g>
        <g transform="matrix(1.482422,0,0,1.482422,12,-1)">
            <path d="M445.419,437.426C444.736,437.798 444.904,438.596 440.494,438.372C440.865,438.217 442.432,437.563 445.419,437.426Z" style="fill:rgb(190,66,0);fill-opacity:0.15;"/>
        </g>
        <g transform="matrix(1.482422,0,0,1.482422,12,-1)">
            <path d="M661.499,267.348C663.771,267.026 663.839,266.979 665.546,268.436C663.632,268.034 661.818,267.451 661.499,267.348Z" style="fill:rgb(199,70,2);fill-opacity:0.24;"/>
        </g>
        <g transform="matrix(1.482422,0,0,1.482422,12,-1)">
            <path d="M341.103,395.456C341.129,395.782 341.267,397.519 341.336,399.548C339.961,397.76 340.323,397.592 341.103,395.456Z" style="fill:rgb(206,74,4);fill-opacity:0.2;"/>
        </g>
        <g transform="matrix(1.482422,0,0,1.482422,12,-1)">
            <path d="M341.081,329.446C341.078,329.845 341.022,329.833 340.882,334.428C340.191,331.905 340.21,331.907 341.081,329.446Z" style="fill:rgb(204,71,1);fill-opacity:0.27;"/>
        </g>
        <g transform="matrix(1.482422,0,0,1.482422,12,-1)">
            <path d="M611.492,422.673C613.47,421.875 613.499,421.862 615.508,422.676C615.187,422.662 613.5,422.587 611.492,422.673Z" style="fill:rgb(227,81,2);fill-opacity:0.22;"/>
        </g>
        <g transform="matrix(1.482422,0,0,1.482422,12,-1)">
            <path d="M476.492,422.67C478.468,421.88 478.496,421.866 480.509,422.673C480.188,422.658 478.5,422.578 476.492,422.67Z" style="fill:rgb(228,81,0);fill-opacity:0.22;"/>
        </g>
        <g transform="matrix(1.482422,0,0,1.482422,12,-1)">
            <path d="M497.492,422.672C499.464,421.88 499.492,421.865 501.508,422.67C499.5,422.578 497.813,422.657 497.492,422.672Z" style="fill:rgb(228,80,0);fill-opacity:0.22;"/>
        </g>
        <g transform="matrix(1.482422,0,0,1.482422,12,-1)">
            <path d="M519.492,422.673C521.466,421.882 521.493,421.866 523.508,422.67C523.187,422.655 521.5,422.579 519.492,422.673Z" style="fill:rgb(228,81,0);fill-opacity:0.22;"/>
        </g>
        <g transform="matrix(1.482422,0,0,1.482422,12,-1)">
            <path d="M486.493,422.666C488.46,421.879 488.488,421.86 490.507,422.669C488.5,422.568 486.813,422.65 486.493,422.666Z" style="fill:rgb(228,80,0);fill-opacity:0.22;"/>
        </g>
        <g transform="matrix(1.482422,0,0,1.482422,12,-1)">
            <path d="M515.451,229.822C517.073,229.665 516.992,229.672 518.543,229.811L518.365,230.24C516.981,230.373 517.054,230.379 515.628,230.266L515.451,229.822Z" style="fill:rgb(225,78,0);fill-opacity:0.26;"/>
        </g>
        <g transform="matrix(1.482422,0,0,1.482422,12,-1)">
            <path d="M586.453,229.824C588.002,229.687 587.92,229.679 589.548,229.826L589.372,230.263C587.996,230.37 588.069,230.376 586.628,230.263L586.453,229.824Z" style="fill:rgb(225,77,0);fill-opacity:0.26;"/>
        </g>
        <g transform="matrix(1.482422,0,0,1.482422,12,-1)">
            <path d="M536.454,229.816C538.064,229.678 537.98,229.684 539.549,229.819L539.37,230.263C537.947,230.333 538.028,230.347 536.639,230.231L536.454,229.816Z" style="fill:rgb(224,78,0);fill-opacity:0.27;"/>
        </g>
        <g transform="matrix(1.482422,0,0,1.482422,12,-1)">
            <path d="M604.449,229.83C606.016,229.703 605.933,229.697 607.552,229.834L607.368,230.254C606.456,230.255 605.543,230.257 604.631,230.258L604.449,229.83Z" style="fill:rgb(223,76,0);fill-opacity:0.29;"/>
        </g>
        <g transform="matrix(1.482422,0,0,1.482422,12,-1)">
            <path d="M486.493,422.666C486.813,422.65 488.5,422.568 490.507,422.669C488.453,423.258 488.483,423.24 486.493,422.666Z" style="fill:rgb(190,68,0);fill-opacity:0.09;"/>
        </g>
        <g transform="matrix(1.482422,0,0,1.482422,12,-1)">
            <path d="M476.492,422.67C478.5,422.578 480.188,422.658 480.509,422.673C478.449,423.259 478.479,423.239 476.492,422.67Z" style="fill:rgb(189,69,0);fill-opacity:0.09;"/>
        </g>
        <g transform="matrix(1.482422,0,0,1.482422,12,-1)">
            <path d="M519.492,422.673C521.5,422.579 523.187,422.655 523.508,422.67C521.522,423.238 521.553,423.259 519.492,422.673Z" style="fill:rgb(189,69,0);fill-opacity:0.09;"/>
        </g>
        <g transform="matrix(1.482422,0,0,1.482422,12,-1)">
            <path d="M497.492,422.672C497.813,422.657 499.5,422.578 501.508,422.67C499.45,423.257 499.481,423.238 497.492,422.672Z" style="fill:rgb(189,68,0);fill-opacity:0.09;"/>
        </g>
        <g transform="matrix(1.482422,0,0,1.482422,12,-1)">
            <path d="M503.492,422.672C503.813,422.657 505.5,422.582 507.509,422.673C505.449,423.26 505.48,423.24 503.492,422.672Z" style="fill:rgb(189,68,1);fill-opacity:0.09;"/>
        </g>
        <g transform="matrix(1.482422,0,0,1.482422,12,-1)">
            <path d="M611.492,422.673C613.5,422.587 615.187,422.662 615.508,422.676C613.452,423.264 613.482,423.245 611.492,422.673Z" style="fill:rgb(189,69,2);fill-opacity:0.08;"/>
        </g>
        <g transform="matrix(1.482422,0,0,1.482422,12,-1)">
            <path d="M478.478,229.764C480.052,229.662 479.969,229.672 481.547,229.822L481.371,230.263C479.855,230.237 479.922,230.234 478.478,229.764Z" style="fill:rgb(237,82,0);fill-opacity:0.29;"/>
        </g>
        <g transform="matrix(1.482422,0,0,1.482422,12,-1)">
            <path d="M540.633,343.518C540.695,343.671 541.398,345.435 541.398,345.435C541.172,345.872 540.459,345.905 540.233,346.342C540.496,343.67 540.617,343.746 540.633,343.518Z" style="fill:rgb(250,85,0);fill-opacity:0.17;"/>
        </g>
        <g transform="matrix(1.482422,0,0,1.482422,12,-1)">
            <path d="M368.491,422.676C370.5,422.594 372.188,422.67 372.509,422.685C370.451,423.253 370.48,423.234 368.491,422.676Z" style="fill:rgb(188,69,4);fill-opacity:0.09;"/>
        </g>
        <g transform="matrix(1.482422,0,0,1.482422,12,-1)">
            <path d="M497.35,340.518L497.445,341.501C497.45,342.174 497.456,342.847 497.461,343.519C496.596,342.108 496.931,342.06 497.35,340.518Z" style="fill:rgb(211,72,0);fill-opacity:0.09;"/>
        </g>
        <g transform="matrix(1.482422,0,0,1.482422,12,-1)">
            <path d="M341.463,237.483C341.264,238.456 341.064,239.43 340.865,240.403C340.648,238.806 340.462,238.722 341.463,237.483Z" style="fill:rgb(217,81,5);fill-opacity:0.18;"/>
        </g>
        <g transform="matrix(1.482422,0,0,1.482422,12,-1)">
            <path d="M497.445,341.501C498.078,343.469 498.187,343.393 498.249,344.556C497.987,344.211 497.724,343.865 497.461,343.519C497.456,342.847 497.45,342.174 497.445,341.501Z" style="fill:rgb(203,69,0);fill-opacity:0.25;"/>
        </g>
        <g transform="matrix(1.482422,0,0,1.482422,12,-1)">
            <path d="M341.078,382.464C341.057,383.64 340.973,383.573 340.566,385.482C340.569,383.886 340.593,383.973 341.078,382.464Z" style="fill:rgb(209,75,2);fill-opacity:0.25;"/>
        </g>
        <g transform="matrix(1.482422,0,0,1.482422,12,-1)">
            <path d="M631.498,422.644C632.991,422.149 632.948,422.121 634.501,422.547C633.5,422.579 632.499,422.611 631.498,422.644Z" style="fill:rgb(208,74,2);fill-opacity:0.23;"/>
        </g>
        <g transform="matrix(1.482422,0,0,1.482422,12,-1)">
            <path d="M468.875,318.665C468.998,320.174 468.843,320.092 468.397,321.491C468.53,319.997 468.516,320.075 468.875,318.665Z" style="fill:rgb(207,69,0);fill-opacity:0.24;"/>
        </g>
        <g transform="matrix(1.482422,0,0,1.482422,12,-1)">
            <path d="M521.054,357.379C520.94,358.102 520.825,358.825 520.711,359.548C520.677,358.425 520.635,358.494 521.054,357.379Z" style="fill:rgb(205,71,0);fill-opacity:0.27;"/>
        </g>
    </g>
</svg>
