<?xml version="1.0" encoding="UTF-8" standalone="no"?>
<!DOCTYPE svg PUBLIC "-//W3C//DTD SVG 1.1//EN" "http://www.w3.org/Graphics/SVG/1.1/DTD/svg11.dtd">
<svg width="100%" height="100%" viewBox="0 0 753 183" version="1.1" xmlns="http://www.w3.org/2000/svg" xmlns:xlink="http://www.w3.org/1999/xlink" xml:space="preserve" xmlns:serif="http://www.serif.com/" style="fill-rule:evenodd;clip-rule:evenodd;stroke-linejoin:round;stroke-miterlimit:2;">
    <g transform="matrix(1,0,0,1,-396.388433,-401.49379)">
        <g transform="matrix(1.489258,0,0,1.489258,0,0)">
            <path d="M517.384,298.911C528.508,300.823 531.736,302.455 538.491,309.508C544.448,315.727 545.758,325.826 545.957,327.361C546.172,333.349 546.324,333.293 546.115,339.313C545.971,340.397 544.747,349.572 542.472,352.482C539.228,356.631 538.841,360.973 527.305,367.101C526.856,367.339 526.593,366.59 521.303,369.205C521.077,369.205 521.098,369.321 518.499,369.542L514.495,369.643C513.523,369.628 506.166,369.51 502.556,367.373C502.293,367.218 502.596,367.026 502.278,366.93C501.794,366.783 501.884,366.805 501.422,366.66C501.191,366.366 497.265,361.362 497.31,364.441C497.32,365.143 497.631,365.819 497.641,366.52L497.861,368.462C497.812,370.092 497.935,379.387 497.838,381.495C497.658,384.724 497.87,384.674 498.433,390.487C497.501,391.783 496.586,393.056 478.544,392.014C474.67,391.791 476.723,389.865 476.468,385.5C478.338,377.086 476.828,377.061 477.178,368.517L477.281,366.455C477.633,363.452 477.499,363.504 477.215,360.559C477.274,359.596 477.342,358.494 477.173,348.502C477.17,347.503 477.167,346.503 477.165,345.503C477.166,331.477 477.168,317.45 477.17,303.423C477.593,301.803 477.668,301.89 478.499,300.443C492.627,300.467 496.736,300.084 497.458,301.519C498.098,302.792 496.167,308.648 499.561,304.588C499.634,304.501 499.561,304.588 500.599,303.608C501.719,302.803 501.663,302.847 502.71,301.935C504.886,300.077 511.654,299.238 512.459,299.138C512.853,299.129 512.841,299.064 517.384,298.911ZM512.439,317.961C518.68,319.489 520.749,322.037 521.253,322.658C521.002,325.374 520.465,325.815 522.723,327.313C521.927,328.208 521.822,327.999 521.189,329.04C518.479,333.491 523.801,329.394 523.979,329.258C529.668,346.495 511.477,356.054 501.658,346.373C501.265,345.754 500.873,345.135 500.481,344.515C499.445,343.065 499.425,343.135 498.69,341.473C499.777,339.058 499.39,338.989 498.434,336.526L498.01,335.615C497.968,334.266 497.925,332.917 497.883,331.568C498.021,331.401 499.607,329.483 499.607,329.483C499.642,328.757 498.618,328.248 498.653,327.522C499.737,324.693 499.849,324.81 501.216,322.175C502.844,322.81 502.736,322.927 503.714,324.314C505.169,326.377 504.84,323.896 505.43,321.489C505.635,320.651 505.756,320.678 505.724,320.611C505.247,319.626 504.775,320.137 504.331,319.221C505.871,318.545 505.815,318.664 507.504,318.584C507.727,318.705 510.011,319.957 510.525,319.551C511.23,318.996 510.723,318.703 511.439,318.108C511.9,317.725 512.008,318.319 512.439,317.961ZM504.331,319.221C504.775,320.137 505.247,319.626 505.724,320.611C505.756,320.678 505.635,320.651 505.43,321.489C504.84,323.896 505.169,326.377 503.714,324.314C502.736,322.927 502.844,322.81 501.216,322.175C502.518,320.4 502.489,320.442 504.331,319.221ZM522.723,327.313C523.055,327.676 523.387,328.04 523.718,328.403C523.805,328.688 523.892,328.973 523.979,329.258C523.801,329.394 518.479,333.491 521.189,329.04C521.822,327.999 521.927,328.208 522.723,327.313ZM521.253,322.658C523.419,325.125 523.625,325.121 523.718,328.403C523.387,328.04 523.055,327.676 522.723,327.313C520.465,325.815 521.002,325.374 521.253,322.658ZM512.439,317.961C512.008,318.319 511.9,317.725 511.439,318.108C510.723,318.703 511.23,318.996 510.525,319.551C510.011,319.957 507.727,318.705 507.504,318.584C509.959,317.887 509.923,318.01 512.439,317.961ZM498.653,327.522C498.618,328.248 499.642,328.757 499.607,329.483C499.607,329.483 498.021,331.401 497.883,331.568C498.13,330.508 497.629,330.558 497.862,329.559C497.902,329.389 497.921,329.408 498.653,327.522Z" style="fill:rgb(254,73,0);fill-opacity:0.99;"/>
        </g>
        <g transform="matrix(1.489258,0,0,1.489258,0,0)">
            <path d="M736.476,299.212C737.819,299.281 739.161,299.349 740.503,299.418L742.539,299.263C743.428,299.365 749.23,300.029 753.416,301.913C754.458,302.824 754.377,302.759 755.611,303.331C763.282,306.452 769.871,320.007 770.034,320.711C772.306,330.54 771.283,330.563 770.748,340.611C769.997,340.672 769.247,340.734 768.496,340.795C764.765,340.848 764.789,340.852 764.467,340.853C762.003,340.857 762.105,340.779 759.54,340.784C752.299,340.74 741.392,340.493 735.465,340.858L734.536,340.858C730.962,340.63 731.065,340.683 727.469,340.835C725.708,341.662 724.977,341.615 725.707,343.417C727.751,348.463 732.671,350.314 733.463,350.612C734.973,351.236 734.849,351.292 736.477,351.56C737.018,351.684 739.345,352.22 743.404,351.207C750.256,349.497 748.802,346.311 753.51,345.61C754.527,345.856 755.543,346.101 756.56,346.346C769.036,350.371 770.005,350.825 769.092,352.3C764.187,360.227 758.664,363.808 757.534,364.541C755.872,365.391 755.963,365.337 754.433,366.332C752.731,367.419 745.806,369.365 743.5,369.509C740.469,369.539 740.528,369.378 737.494,369.649C733.514,369.455 733.56,369.831 729.615,369.058C729.273,368.971 726.627,368.299 725.437,367.647C713.011,362.488 713.186,359.611 709.494,355.505C709.17,354.833 708.845,354.162 708.521,353.49C707.649,352.447 707.031,350.58 706.942,350.311C706.563,349.563 706.137,349.731 704.511,339.499C703.93,333.846 703.875,330.928 704.993,325.56C706.693,320.62 705.333,320.116 710.243,312.342C713.339,307.44 713.744,307.827 718.459,304.46C720.145,303.624 720.035,303.58 721.48,302.431C725.322,300.767 725.352,301.036 729.362,300.036C732.918,299.42 732.864,299.442 736.476,299.212ZM736.503,316.721C737.723,318.944 738.264,318.928 738.501,318.921C738.861,318.91 739.14,318.331 739.477,318.458C739.955,318.639 740,319.391 740.439,319.653C742.217,320.717 745.115,318.805 745.458,318.579C745.797,318.894 746.136,319.21 746.476,319.525C746.61,320.128 746.744,320.731 746.879,321.333C745.987,325.481 747.371,325.171 747.649,325.642C747.244,326.129 746.84,326.617 746.436,327.104L744.538,327.135C744.157,325.821 744.484,325.569 743.169,324.972C741.077,324.023 741.812,323.349 741.638,323.297C740.824,323.052 739.927,323.883 737.05,326.5L736.488,327.186L734.533,327.179C733.666,324.637 733.706,324.638 733.597,324.433C733.41,324.084 732.398,322.54 729.464,327.152L728.533,327.172C728.384,326.79 727.694,326.821 727.545,326.439C727.488,326.291 728.417,326.44 727.676,324.469C727.383,323.69 727.201,323.56 728.002,323.159C729.709,322.302 729.184,321.9 730.152,319.107C730.588,318.858 731.024,318.609 731.46,318.36L732.408,319.737C734.196,323.648 734.269,323.656 734.63,323.695C737.986,324.056 734.498,319.6 734.282,319.324C734.296,318.591 734.311,317.858 734.325,317.125C735.051,316.99 735.777,316.856 736.503,316.721ZM736.488,327.186L737.05,326.5C739.927,323.883 740.824,323.052 741.638,323.297C741.812,323.349 741.077,324.023 743.169,324.972C744.484,325.569 744.157,325.821 744.538,327.135C741.855,327.152 739.172,327.169 736.488,327.186ZM736.503,316.721C737.234,316.681 742.18,316.409 745.458,318.579C745.115,318.805 742.217,320.717 740.439,319.653C740,319.391 739.955,318.639 739.477,318.458C739.14,318.331 738.861,318.91 738.501,318.921C738.264,318.928 737.723,318.944 736.503,316.721ZM730.152,319.107C729.184,321.9 729.709,322.302 728.002,323.159C727.201,323.56 727.383,323.69 727.676,324.469C728.417,326.44 727.488,326.291 727.545,326.439C727.694,326.821 728.384,326.79 728.533,327.172C728.156,327.17 723.051,328.347 725.942,323.725C729.039,318.775 729.702,319.42 730.152,319.107ZM746.879,321.333C748.193,321.875 748.142,321.84 749.345,322.606C749.946,323.583 749.815,323.551 750.437,324.522C749.508,324.895 748.578,325.269 747.649,325.642C747.371,325.171 745.987,325.481 746.879,321.333ZM729.464,327.152C732.398,322.54 733.41,324.084 733.597,324.433C733.706,324.638 733.666,324.637 734.533,327.179C732.843,327.17 731.154,327.161 729.464,327.152ZM732.408,319.737C733.032,319.599 733.657,319.462 734.282,319.324C734.498,319.6 737.986,324.056 734.63,323.695C734.269,323.656 734.196,323.648 732.408,319.737ZM750.437,324.522C751.79,328.846 747.993,327.132 746.436,327.104C746.84,326.617 747.244,326.129 747.649,325.642C748.578,325.269 749.508,324.895 750.437,324.522ZM734.325,317.125C734.311,317.858 734.296,318.591 734.282,319.324C733.657,319.462 733.032,319.599 732.408,319.737L731.46,318.36C732.73,317.419 732.726,317.519 734.325,317.125Z" style="fill:rgb(254,73,0);fill-opacity:0.99;"/>
        </g>
        <g transform="matrix(1.489258,0,0,1.489258,0,0)">
            <path d="M593.103,302.387C594.572,298.223 596.053,300.463 600.5,300.458C602.342,300.456 612.636,299.941 613.622,301.455C613.769,301.682 613.593,302.563 613.741,312.469C613.741,313.076 613.664,312.977 613.664,313.488C613.664,313.73 613.667,313.712 613.704,316.509C613.706,318.836 613.707,321.164 613.709,323.491C613.652,325.489 613.701,328.107 613.709,328.509L613.712,333.49L613.709,338.508C613.707,366.585 613.974,367.347 612.523,367.587C608.393,368.27 595.915,367.676 594.473,367.607C592.886,367.531 593.6,366.755 593.37,364.536C593.305,364.386 592.552,362.65 592.552,362.65C592.087,362.672 592.081,363.665 591.616,363.686C586.235,369.569 580.784,369.534 575.504,369.642C574.167,369.63 572.829,369.619 571.491,369.607C561.604,368.781 556.082,362.102 555.502,361.498C552.187,358.042 553.795,357.093 550.755,353.321C550.607,353.137 549.478,344.316 549.377,343.531C549.595,341.498 549.597,341.597 549.556,339.498C549.625,336.776 550.178,314.999 549.246,305.468C548.773,300.546 550.084,300.497 550.495,300.482C569.3,299.788 569.773,300.896 569.914,302.451C570.585,309.895 567.443,345.482 574.518,347.473C577.165,348.217 579.058,351.894 586.41,348.277C593.291,344.891 592.938,339.359 593.101,337.546C593.142,335.527 593.183,333.508 593.224,331.489L593.159,328.535C593.355,317.44 593.385,317.53 593.16,306.467L593.164,305.529L593.237,304.517C593.193,303.807 593.148,303.097 593.103,302.387Z" style="fill:rgb(254,73,0);fill-opacity:0.99;"/>
        </g>
        <g transform="matrix(1.489258,0,0,1.489258,0,0)">
            <path d="M301.491,298.323L303.506,298.336C305.565,298.694 305.513,298.687 307.532,298.332L308.506,298.327L309.471,298.234C311.406,299.178 311.496,298.687 313.519,299.367C315.467,299.604 315.4,299.599 317.321,299.765C323.5,301.459 326.611,304.271 327.275,304.871C327.621,305.148 327.967,305.424 328.314,305.701C333.567,310.512 334.596,312.566 334.958,313.287C335.512,314.394 337.305,314.517 337.756,319.363C339.345,326.106 336.258,325.478 329.514,326.806C325.214,327.553 325.365,327.766 321.302,329.265C321.039,329.191 320.865,329.764 320.602,329.69C320.602,329.69 318.899,328.484 318.751,328.379C317.897,327.185 317.378,325.855 317.287,325.623C316.264,323.724 316.235,323.851 314.788,322.177L314.348,321.735C313.353,320.606 311.624,319.85 311.36,319.734C309.506,318.977 309.521,318.974 309.358,318.917C308.884,318.75 308.927,318.936 308.469,318.774C303.734,316.74 300.157,318.467 299.512,318.779C298.417,319.13 298.536,319.128 297.513,319.52C291.844,321.692 289.895,328.536 289.892,328.556C286.467,352.175 308.581,354.052 314.256,346.305C315.482,346.106 315.482,346.145 316.282,345.227C316.607,344.629 316.931,344.031 317.256,343.433C318.064,342.52 318.068,342.605 318.836,341.647C320.788,339.214 322.44,340.125 322.583,340.09C322.989,339.991 323.179,339.435 323.585,339.336C325.333,340.163 325.25,340.261 326.491,340.528C328.417,341.345 328.365,341.354 330.484,341.606C334.625,342.101 334.528,343.159 338.609,342.419L339.045,342.759L339.287,343.657C338.601,345.562 338.809,345.52 338.642,347.576C336.878,352.654 332.257,357.766 331.556,358.541C331.183,358.834 330.809,359.126 330.436,359.419C328.37,361.807 327.049,362.321 326.663,363.65C326.582,363.931 326.558,364.016 323.541,365.55C321.441,365.874 321.34,365.523 319.588,366.78C317.505,367.741 317.636,368.123 315.375,368.07C312.847,368.646 312.893,368.555 310.499,369.649C308.847,369.69 307.194,369.73 305.541,369.771C302.02,369.493 302.088,369.955 298.51,369.393C297.821,369.488 297.132,369.583 296.443,369.679L293.485,368.616C291.974,367.895 292.047,367.912 290.456,367.614L289.44,367.642C288.306,366.962 286.765,366.496 286.523,366.423C285.563,365.72 285.611,365.785 284.427,365.577C283.481,364.527 283.569,364.598 283.481,364.527C283.081,364.201 283.007,364.468 282.591,364.13C281.161,362.507 280.262,361.909 278.589,361.436C277.713,360.223 277.764,360.258 276.437,359.649C276.066,357.659 275.914,357.758 274.306,356.607C274.015,355.841 272.719,354.603 272.558,354.45C272.527,354.268 272.482,354.318 271.915,352.241C271.386,351.35 270.857,350.46 270.328,349.57L269.841,349.27C269.773,347.59 269.792,347.599 269.768,347.455C269.566,346.259 269.165,346.476 268.978,345.362C267.826,340.435 268.243,340.449 267.889,335.379C268.028,331.694 268.045,331.73 268.045,331.412C268.463,324.783 269.236,325.008 270.601,318.534C271.662,317.048 271.631,317.095 272.338,315.353C277.324,308.829 276.932,308.458 283.483,303.481C286.878,302.653 286.588,302.192 289.483,300.354C292.551,299.638 294.918,299.201 295.393,299.114C298.444,298.634 298.395,298.854 301.491,298.323Z" style="fill:rgb(188,188,188);fill-opacity:0.96;"/>
        </g>
        <g transform="matrix(1.489258,0,0,1.489258,0,0)">
            <path d="M676.391,298.889C677.089,298.995 677.786,299.101 678.484,299.207C679.32,299.291 679.293,299.303 682.404,299.751C682.803,299.839 686.449,300.649 687.376,300.938C690.196,302.941 692.05,303.397 692.495,303.506C697.295,307.464 697.801,308.321 698.117,308.855C698.715,309.807 698.692,309.758 699.422,310.555C699.773,310.878 700.123,311.2 700.474,311.522C701.06,313.536 700.84,313.574 701.905,315.347C703.555,318.151 702.834,318.331 703.29,321.573L702.473,322.475C700.513,323.01 700.571,322.915 698.471,322.973C687.434,323.87 687.443,323.779 686.487,323.883L685.547,323.899C682.73,323.462 682.79,323.514 682.552,323.468C682.46,323.315 682.553,323.359 681.477,321.515C681.278,319.399 681.143,319.408 679.59,318.431C673.497,314.146 666.966,316.904 665.625,318.575C664.013,320.111 664.415,320.483 665.702,322.333C666.312,322.673 666.921,323.012 667.531,323.352C669.87,324.408 669.785,324.627 672.331,324.784C673.389,324.953 674.447,325.122 675.504,325.291C676.169,325.378 676.834,325.465 677.499,325.552C678.531,325.727 679.563,325.902 680.595,326.078C681.808,326.346 683.02,326.614 684.233,326.882C688.437,327.673 689.177,328.085 689.562,328.3C693.197,330.297 693.064,330.395 696.677,332.341C698.071,333.547 698.129,333.424 699.212,334.854C699.39,335.228 700.093,336.705 701.565,339.47C702.882,344.564 703.081,345.016 702.58,352.52C701.497,355 701.254,354.776 700.141,357.199C695.077,366.871 686.189,367.26 679.528,369.601C677.512,369.462 677.574,369.454 675.497,369.644C672.832,369.641 670.166,369.637 667.5,369.634C666.833,369.551 666.166,369.469 665.499,369.387C664.028,369.088 664.099,368.97 662.552,369.155C660.34,368.328 660.407,368.298 659.7,368.164C651.534,365.896 646.514,360.993 642.599,350.452C642.541,349.467 642.482,348.481 642.423,347.495C643.488,344.984 643.448,344.988 643.565,344.784C648.515,344.185 648.469,344.343 653.442,344.125C657.964,344.022 657.862,343.542 658.497,343.4C659.163,343.475 659.841,343.398 660.507,343.473C662.88,343.741 659.97,347.231 666.65,351.156C667.616,351.524 668.583,351.892 669.549,352.261C670.217,352.253 670.885,352.246 671.553,352.238C672.306,352.222 677.836,352.505 679.425,351.386C681.239,350.109 681.976,350.627 682.276,348.453C683.029,342.997 673.044,342.804 670.54,342.195C669.075,341.864 669.144,341.865 667.698,342.072C654.614,337.049 642.375,337.604 644.598,316.526C645.699,314.493 645.095,314.292 646.307,312.399C648.524,309.076 649.349,306.995 652.331,305.239C654.778,303.799 654.31,302.681 655.495,302.484C657.844,302.093 657.695,301.884 659.706,300.773C661.547,300.763 663.114,300.26 663.399,300.169C664.75,299.871 666.102,299.573 667.453,299.275C674.514,299.087 675.679,298.964 676.391,298.889Z" style="fill:rgb(254,74,0);fill-opacity:0.98;"/>
        </g>
        <g transform="matrix(1.489258,0,0,1.489258,0,0)">
            <path d="M414.428,272.396C417.305,271.836 435.691,271.122 435.806,273.444C436.231,282.082 435.174,297.534 436.486,301.504C437.188,303.631 434.664,306.745 436.492,312.502C436.821,313.54 436.219,319.899 436.158,320.54C436.098,320.817 434.382,328.726 437.693,323.735C438.163,323.027 438.01,323.039 438.331,322.335C438.937,321.384 438.666,321.333 439.309,320.4C442.026,318.544 442.005,318.491 443.424,315.4C443.744,315.079 444.065,314.757 444.385,314.436C445.734,312.975 445.808,313.08 446.3,311.187C451.49,307.535 452.847,300.365 457.496,300.339C459.825,300.326 472.22,300.419 473.501,300.429L473.25,301.5L471.34,304.443C471.013,304.872 469.035,307.803 467.526,309.523C463.472,314.145 456.576,323.982 450.657,329.64C449.287,330.949 448.397,332.326 463.312,349.659C464.107,350.584 478.027,366.34 470.518,363.32C468.168,362.376 461.367,362.797 460.448,362.721C453.416,362.137 441.603,337.009 435.634,338.844C430.595,340.393 432.513,344.975 432.164,360.459C432.096,363.471 427.922,362.635 421.526,362.825C415.66,363 419.185,358.507 418.683,357.5C418.507,357.145 417.677,357.968 417.5,357.613L416.5,357.122L415.679,356.5L414.316,355.499C414.303,349.837 414.291,344.175 414.279,338.512C414.191,335.96 414.94,335.979 414.237,333.457C414.195,333.305 414.24,333.311 414.279,331.488C414.288,326.977 414.138,327.042 414.552,322.492C414.495,321.825 414.438,321.158 414.381,320.491C414.293,317.96 414.278,318.044 414.271,315.488C414.73,306.962 415.093,307 414.302,298.509L414.311,294.491C414.348,288.161 414.386,281.832 414.423,275.502C414.462,275.257 414.421,275.273 414.428,272.396Z" style="fill:rgb(201,201,199);fill-opacity:0.99;"/>
        </g>
        <g transform="matrix(1.489258,0,0,1.489258,0,0)">
            <path d="M341.826,323.503L342.791,322.5L343.256,321.5L343.25,320.5L343.313,319.5L343.565,318.5L343.639,317.5L343.116,316.5L343.209,315.5L343.237,314.5L343.326,313.5L343.562,312.5L343.622,311.5L343.638,310.5C343.371,281.88 345.336,281.907 344.732,279.5C343.765,275.643 345.638,276.167 349.5,275.311L350.5,275.355L351.5,275.391L352.5,275.27L353.5,275.209L354.5,275.118L355.5,274.792C356.085,274.956 356.437,273.928 357.626,275.388C359.047,277.132 358.007,277.464 358.558,303.497C358.634,307.062 358.385,307.538 361.54,309.263C364.205,310.72 363.377,305.522 374.455,303.27C396.171,298.855 403.276,315.141 404.335,317.57C406.951,323.567 405.604,361.545 405.6,361.555C405.032,363.414 392.577,363.08 392.323,361.659C391.94,359.52 391.691,358.13 392.564,334.499C392.817,327.629 392.14,327.758 389.438,321.53C387.828,317.818 382.404,314.039 377.473,313.853C365.751,313.411 365.295,316.647 361.28,321.375C356.164,327.398 358.698,328.43 358.155,360.467C358.105,363.439 353.954,362.9 348.502,362.777C342.374,362.639 344.958,359.66 344.226,355.5C343.056,348.857 344.333,348.861 343.76,344.5C343.103,339.49 344.753,338.459 341.256,336.533C341.252,332.97 341.288,333.035 341.205,331.56C341.545,330.049 341.577,330.147 341.587,328.5C341.666,326.834 341.746,325.168 341.826,323.503Z" style="fill:rgb(203,203,202);fill-opacity:0.99;"/>
        </g>
        <g transform="matrix(1.489258,0,0,1.489258,0,0)">
            <path d="M636.514,272.089C637.934,272.306 637.847,272.231 639.233,272.68C640.027,276.463 639.567,342.367 639.453,344.505C639.27,350.531 639.502,350.471 639.552,356.505C639.576,357.372 639.837,366.868 639.349,367.341C638.946,367.733 632.875,367.597 621.499,367.594C620.668,366.914 619.836,366.234 619.005,365.555C619.012,364.11 619.053,355.359 619.054,347.501C619.056,332.804 619.004,332.848 619.006,331.574L619.003,328.422C618.805,322.105 619.448,283.211 618.721,273.491C618.579,271.591 623.014,272.084 636.514,272.089Z" style="fill:rgb(254,74,0);fill-opacity:0.99;"/>
        </g>
        <g transform="matrix(1.489258,0,0,1.489258,0,0)">
            <path d="M330.5,323.526L329.5,323.843L328.5,324.033L327.5,323.963L326.5,324.138L325.5,324.365C320.548,324.384 321.133,322.936 317.406,319.609C312.066,314.843 308.674,314.594 307.559,314.305C296.725,311.497 289.209,320.597 288.425,322.461C275.858,352.334 308.271,361.647 319.417,347.44C324.213,341.326 325.774,345.3 333.5,345.067C335.98,344.992 333.593,348.694 332.128,351.217C319.887,372.294 275.215,371.316 272.263,338.523C270.578,319.81 279.877,312.623 280.581,311.572C287.461,301.306 311.12,300.884 319.686,305.097C330.327,310.33 331.921,316.285 332.796,317.3C336.678,321.802 331.612,322.98 330.5,323.526Z" style="fill:rgb(203,203,201);fill-opacity:0.99;"/>
        </g>
        <g transform="matrix(1.489258,0,0,1.489258,0,0)">
            <path d="M345.533,271.959C359.959,272.519 360.285,272.007 360.95,270.965C361.057,270.799 365.837,267.322 362.876,272.514C362.006,274.042 361.743,274.503 362.669,294.492L362.681,298.508C362.455,299.805 360.763,307.871 364.398,303.414C365.639,302.025 366.136,302.851 367.554,301.626C367.696,301.503 367.696,301.525 369.471,300.261C369.872,300.212 371.336,300.035 374.396,299.111C375.218,299.105 375.115,299.077 377.553,298.768C379.386,298.317 379.373,298.31 379.533,298.281C380.512,298.101 380.476,298.455 381.479,298.27C382.508,298.244 383.537,298.218 384.566,298.192C389.398,298.747 389.189,299.327 393.605,301.251C394.74,302.022 394.641,301.974 394.74,302.022C395.02,302.159 395.007,301.782 395.334,301.942C396.581,302.396 397.475,303.169 397.637,303.309C397.755,303.432 397.768,303.349 399.288,304.657C400.376,305.431 406.433,309.741 408.712,318.428C408.908,321.505 408.916,321.458 409.799,324.438C409.823,326.52 409.742,326.437 409.762,328.509C409.78,338.406 409.682,338.409 410.593,340.467C411.079,341.565 409.626,341.599 409.847,355.446C409.922,356.441 409.996,357.436 410.07,358.43L409.702,359.477C409.482,361.05 409.49,360.972 409.731,362.545C409.363,366.238 410.221,368.011 406.494,367.587C405.064,367.424 405.073,367.795 388.504,367.492L388.191,365.509L388.125,362.571C388.347,358.468 388.809,358.535 388.11,354.426C388.113,353.806 388.116,353.187 388.119,352.568C388.613,345.48 388.525,345.537 388.322,338.499C388.549,332.841 389.391,332.725 387.212,327.472C387.129,325.92 387.32,325.927 386.398,324.58C385.374,321.256 385.426,321.045 382.311,319.675C381.702,319.358 381.093,319.041 380.484,318.724C376.084,317.178 375.99,317.156 371.514,318.687C370.146,319.185 370.169,319.05 369.575,319.559C367.58,319.788 367.6,319.959 366.624,321.732C365.429,323.041 365.41,322.918 364.505,324.502C364.013,325.937 363.874,325.911 364.174,327.378C361.648,332.005 362.703,332.255 362.674,337.491L362.683,341.508L362.683,342.493L362.664,346.508C362.66,348.837 362.656,351.165 362.652,353.494C362.644,354.831 362.636,356.168 362.628,357.505L362.63,358.495C362.565,359.412 362.53,362.261 362.605,363.505L362.606,364.498C361.901,365.42 361.197,366.342 360.492,367.264C354.447,367.51 354.467,366.585 348.507,367.593C345.949,368.026 346.002,366.808 343.484,367.43C339.457,368.424 341.653,365.608 341.286,361.475C341.16,360.049 341.345,348.643 341.363,347.527C341.706,346.014 341.721,346.093 341.688,344.532C341.573,341.93 341.444,342.009 341.326,339.478L341.256,336.533C344.753,338.459 343.103,339.49 343.76,344.5C344.333,348.861 343.056,348.857 344.226,355.5C344.958,359.66 342.374,362.639 348.502,362.777C353.954,362.9 358.105,363.439 358.155,360.467C358.698,328.43 356.164,327.398 361.28,321.375C365.295,316.647 365.751,313.411 377.473,313.853C382.404,314.039 387.828,317.818 389.438,321.53C392.14,327.758 392.817,327.629 392.564,334.499C391.691,358.13 391.94,359.52 392.323,361.659C392.577,363.08 405.032,363.414 405.6,361.555C405.604,361.545 406.951,323.567 404.335,317.57C403.276,315.141 396.171,298.855 374.455,303.27C363.377,305.522 364.205,310.72 361.54,309.263C358.385,307.538 358.634,307.062 358.558,303.497C358.007,277.464 359.047,277.132 357.626,275.388C356.437,273.928 356.085,274.956 355.5,274.792L354.5,275.118L353.5,275.209L352.5,275.27L351.5,275.391L350.5,275.355L349.5,275.311C345.638,276.167 343.765,275.643 344.732,279.5C345.336,281.907 343.371,281.88 343.638,310.5L343.622,311.5L343.562,312.5L343.326,313.5L343.237,314.5L343.209,315.5L343.116,316.5L343.639,317.5L343.565,318.5L343.313,319.5L343.25,320.5L343.256,321.5L342.791,322.5L341.826,323.503C341.697,321.21 342.024,321.251 341.202,318.438L341.216,315.555C341.509,313.935 341.5,314.018 341.21,312.442C341.227,305.97 341.236,306.043 341.218,299.555C341.49,297.996 341.505,298.072 341.234,296.45L341.238,294.549C341.77,292.486 341.775,292.533 341.237,290.45L341.251,288.542C341.504,286.936 341.494,287.011 341.245,285.453C341.51,279.262 340.973,276.861 341.536,272.521C345.123,271.996 345.087,271.985 345.533,271.959Z" style="fill:rgb(190,190,189);fill-opacity:0.95;"/>
        </g>
        <g transform="matrix(1.489258,0,0,1.489258,0,0)">
            <path d="M473.501,300.429L478.499,300.443C477.668,301.89 477.593,301.803 477.17,303.423C475.666,305.048 473.823,308.142 473.566,308.574C471.406,311.071 470.32,312.734 470.07,313.119C469.467,313.964 469.457,313.851 468.643,314.629C468.643,314.629 467.796,315.559 467.723,315.64C466.522,316.824 465.757,318.412 465.628,318.678C463.093,321.179 463.389,321.345 460.899,323.791C459.533,325.049 459.676,325.096 458.621,326.64C457.065,328.55 457.14,328.562 456.293,329.378C455.399,330.206 452.491,332.354 456.147,333.68C456.836,335.399 457.548,334.879 458.138,336.709C458.138,336.709 459.126,337.636 459.212,337.716C462.062,340.856 468.159,349.453 469.33,350.712C470.67,352.807 470.559,352.802 472.296,354.631C474.108,357.514 474.175,357.415 474.325,357.665C475.961,359.833 476.193,359.53 476.284,359.623C476.77,360.125 476.735,360.076 477.215,360.559C477.499,363.504 477.633,363.452 477.281,366.455C476.686,366.624 476.092,366.794 475.497,366.963C472.95,367.035 473.033,366.931 470.499,367.53C462.938,367.606 462.977,367.813 455.518,366.455C455.207,366.122 454.896,365.788 454.585,365.454C454.161,364.877 453.738,364.3 453.314,363.723C452.387,362.517 452.419,362.561 451.271,361.626C450.877,361.014 450.949,361.031 450.533,360.48C450.427,360.339 450.605,360.311 449.405,358.578C448.218,356.73 448.329,356.723 446.668,355.402C446.372,355.034 446.524,355.028 446.239,354.672C446.172,354.589 446.239,354.672 445.342,353.68C442.803,349.837 443.102,349.684 441.015,347.874C439.065,345.724 439.386,345.55 437.561,343.35C437.23,341.983 437.295,341.953 437.203,341.874C436.98,341.682 434.592,341.181 436.438,345.477C436.435,352.052 436.601,351.961 436.812,358.464L436.76,360.557C436.572,366.86 435.96,367.172 435.462,367.425C435.267,367.525 435.286,367.18 416.488,367.398C416.04,367.114 415.999,367.402 415.565,367.127C415.491,367.08 415.565,367.127 414.775,366.358L414.416,365.509L414.394,362.49C414.38,361.931 414.429,361.953 414.316,355.499L415.679,356.5L416.5,357.122L417.5,357.613C417.677,357.968 418.507,357.145 418.683,357.5C419.185,358.507 415.66,363 421.526,362.825C427.922,362.635 432.096,363.471 432.164,360.459C432.513,344.975 430.595,340.393 435.634,338.844C441.603,337.009 453.416,362.137 460.448,362.721C461.367,362.797 468.168,362.376 470.518,363.32C478.027,366.34 464.107,350.584 463.312,349.659C448.397,332.326 449.287,330.949 450.657,329.64C456.576,323.982 463.472,314.145 467.526,309.523C469.035,307.803 471.013,304.872 471.34,304.443L473.25,301.5L473.501,300.429Z" style="fill:rgb(190,190,188);fill-opacity:0.95;"/>
        </g>
        <g transform="matrix(1.489258,0,0,1.489258,0,0)">
            <path d="M326.491,340.528C327,340.214 326.95,341.157 327.508,340.814C328.289,340.333 327.665,339.886 328.431,339.334C328.74,339.111 329.255,339.117 329.574,339.325C330.023,339.618 329.948,340.521 330.464,340.664C330.908,340.787 331.188,340.074 331.61,339.888C331.826,339.793 332.17,339.641 334.419,340.799C337.469,341.386 338.342,342.178 338.609,342.419C334.528,343.159 334.625,342.101 330.484,341.606C328.365,341.354 328.417,341.345 326.491,340.528Z" style="fill:rgb(154,154,153);fill-opacity:0.05;"/>
        </g>
        <g transform="matrix(1.489258,0,0,1.489258,0,0)">
            <path d="M730.152,319.107C729.184,321.9 729.709,322.302 728.002,323.159C727.201,323.56 727.383,323.69 727.676,324.469C728.417,326.44 727.488,326.291 727.545,326.439C727.694,326.821 728.384,326.79 728.533,327.172C728.156,327.17 723.051,328.347 725.942,323.725C729.039,318.775 729.702,319.42 730.152,319.107Z" style="fill:rgb(243,72,0);fill-opacity:0.08;"/>
        </g>
        <g transform="matrix(1.489258,0,0,1.489258,0,0)">
            <path d="M323.585,339.336C323.179,339.435 322.989,339.991 322.583,340.09C322.44,340.125 320.788,339.214 318.836,341.647C318.068,342.605 318.064,342.52 317.256,343.433C317.445,340.209 316.762,339.667 318.349,339.097C322.659,337.549 322.729,338.553 323.585,339.336Z" style="fill:rgb(182,183,182);fill-opacity:0.04;"/>
        </g>
        <g transform="matrix(1.489258,0,0,1.489258,0,0)">
            <path d="M299.512,318.779C300.157,318.467 303.734,316.74 308.469,318.774C307.446,319.183 306.424,319.593 305.401,320.002C302.35,319.611 302.258,320.242 299.512,318.779Z" style="fill:rgb(178,177,177);fill-opacity:0.05;"/>
        </g>
        <g transform="matrix(1.489258,0,0,1.489258,0,0)">
            <path d="M727.469,340.835C731.065,340.683 730.962,340.63 734.536,340.858C733.16,342.38 733.353,342.565 731.494,343.428L730.763,344.006C730.457,343.805 728.72,342.667 727.469,340.835Z" style="fill:rgb(254,75,0);fill-opacity:0.07;"/>
        </g>
        <g transform="matrix(1.489258,0,0,1.489258,0,0)">
            <path d="M698.471,322.973L697.501,323.065C697.26,323.279 696.81,325.199 694.474,324.621C690.543,323.649 690.345,325.255 686.487,323.883C687.443,323.779 687.434,323.87 698.471,322.973Z" style="fill:rgb(221,67,0);fill-opacity:0.16;"/>
        </g>
        <g transform="matrix(1.489258,0,0,1.489258,0,0)">
            <path d="M729.464,327.152C732.398,322.54 733.41,324.084 733.597,324.433C733.706,324.638 733.666,324.637 734.533,327.179C732.843,327.17 731.154,327.161 729.464,327.152Z" style="fill:rgb(233,68,0);fill-opacity:0.08;"/>
        </g>
        <g transform="matrix(1.489258,0,0,1.489258,0,0)">
            <path d="M702.58,352.52C701.834,357.65 703.991,361.6 701.401,359.763C701.214,359.631 701.307,359.573 700.141,357.199C701.254,354.776 701.497,355 702.58,352.52Z" style="fill:rgb(216,65,0);fill-opacity:0.11;"/>
        </g>
        <g transform="matrix(1.489258,0,0,1.489258,0,0)">
            <path d="M446.668,355.402C448.329,356.723 448.218,356.73 449.405,358.578C449.166,358.616 449.142,358.015 448.902,358.053C448.423,358.129 446.672,359.914 446.471,359.926C446.11,359.947 444.369,359.883 446.668,355.402Z" style="fill:rgb(117,110,106);fill-opacity:0.05;"/>
        </g>
        <g transform="matrix(1.489258,0,0,1.489258,0,0)">
            <path d="M593.224,331.489C593.183,333.508 593.142,335.527 593.101,337.546C592.952,337.457 591.199,337.249 591.291,335.447C591.433,332.661 591.156,332.621 591.32,332.445C591.803,331.925 592.741,332.009 593.224,331.489Z" style="fill:rgb(206,61,0);fill-opacity:0.05;"/>
        </g>
        <g transform="matrix(1.489258,0,0,1.489258,0,0)">
            <path d="M418.043,350.535C418.361,353.29 418.361,353.272 418.386,353.51C418.821,357.664 416.577,355.07 416.5,354.899C415.37,352.375 415.583,351.957 418.043,350.535Z" style="fill:rgb(193,193,192);fill-opacity:0.99;"/>
        </g>
        <g transform="matrix(1.489258,0,0,1.489258,0,0)">
            <path d="M497.861,368.462C498.103,369.137 498.344,369.813 498.585,370.489C498.571,370.81 498.495,372.5 498.62,374.505L498.614,375.495C498.451,377.5 498.569,379.184 498.591,379.504L498.582,380.497C498.439,381.176 498.296,381.855 498.153,382.534L497.838,381.495C497.935,379.387 497.812,370.092 497.861,368.462Z" style="fill:rgb(206,61,0);fill-opacity:0.26;"/>
        </g>
        <g transform="matrix(1.489258,0,0,1.489258,0,0)">
            <path d="M737.503,298.539C737.761,298.333 738.226,298.61 738.484,298.404C739.014,297.982 739.247,297.278 739.709,296.782C741.358,295.009 741.592,296.591 742.291,298.936C741.695,299.097 741.099,299.257 740.503,299.418C739.161,299.349 737.819,299.281 736.476,299.212L737.503,298.539Z" style="fill:rgb(214,63,0);fill-opacity:0.09;"/>
        </g>
        <g transform="matrix(1.489258,0,0,1.489258,0,0)">
            <path d="M477.178,368.517C476.828,377.061 478.338,377.086 476.468,385.5L476.467,384.501C476.474,384.431 476.47,384.499 476.533,381.503C476.456,375.429 476.456,375.52 476.523,369.499L477.178,368.517Z" style="fill:rgb(191,60,11);fill-opacity:0.3;"/>
        </g>
        <g transform="matrix(1.489258,0,0,1.489258,0,0)">
            <path d="M339.287,343.657C340.087,343.948 340.888,344.24 341.688,344.532C341.721,346.093 341.706,346.014 341.363,347.527C339.93,346.936 339.876,346.73 338.642,347.576C338.809,345.52 338.601,345.562 339.287,343.657Z" style="fill:rgb(181,181,180);fill-opacity:0.11;"/>
        </g>
        <g transform="matrix(1.489258,0,0,1.489258,0,0)">
            <path d="M301.491,298.323C298.395,298.854 298.444,298.634 295.393,299.114C298.517,296.68 299.058,294.756 300.123,296.965C300.58,297.915 300.799,297.636 301.491,298.323Z" style="fill:rgb(125,125,124);fill-opacity:0.08;"/>
        </g>
        <g transform="matrix(1.489258,0,0,1.489258,0,0)">
            <path d="M497.641,366.52C497.631,365.819 497.32,365.143 497.31,364.441C497.265,361.362 501.191,366.366 501.422,366.66C500.49,366.54 500.552,366.583 497.641,366.52Z" style="fill:rgb(238,72,0);fill-opacity:0.09;"/>
        </g>
        <g transform="matrix(1.489258,0,0,1.489258,0,0)">
            <path d="M382.311,319.675C385.426,321.045 385.374,321.256 386.398,324.58L385.638,324.251C384.677,323.261 384.729,323.311 383.685,322.356C381.533,320.725 382.373,320.194 382.311,319.675Z" style="fill:rgb(181,180,178);fill-opacity:0.05;"/>
        </g>
        <g transform="matrix(1.489258,0,0,1.489258,0,0)">
            <path d="M521.253,322.658C523.419,325.125 523.625,325.121 523.718,328.403C523.387,328.04 523.055,327.676 522.723,327.313C520.465,325.815 521.002,325.374 521.253,322.658Z" style="fill:rgb(236,68,0);fill-opacity:0.11;"/>
        </g>
        <g transform="matrix(1.489258,0,0,1.489258,0,0)">
            <path d="M682.552,323.468C682.79,323.514 682.73,323.462 685.547,323.899C685.212,324.382 684.494,324.011 684.233,326.882C683.02,326.614 681.808,326.346 680.595,326.078L681.508,325.932C681.82,325.424 682.128,325.952 682.46,325.412C682.542,325.279 682.467,325.268 682.552,323.468Z" style="fill:rgb(215,67,0);fill-opacity:0.13;"/>
        </g>
        <g transform="matrix(1.489258,0,0,1.489258,0,0)">
            <path d="M289.483,300.354C286.588,302.192 286.878,302.653 283.483,303.481C285.678,300.61 285.805,300.439 289.483,300.354Z" style="fill:rgb(155,154,153);fill-opacity:0.08;"/>
        </g>
        <g transform="matrix(1.489258,0,0,1.489258,0,0)">
            <path d="M298.51,369.393C302.088,369.955 302.02,369.493 305.541,369.771C303.898,370.568 304.011,370.992 302.478,370.756C299.491,370.295 299.459,371.072 296.669,370.139C297.282,369.89 297.896,369.641 298.51,369.393Z" style="fill:rgb(147,146,145);fill-opacity:0.07;"/>
        </g>
        <g transform="matrix(1.489258,0,0,1.489258,0,0)">
            <path d="M341.237,290.45C341.775,292.533 341.77,292.486 341.238,294.549C338.595,293.091 338.616,291.894 341.237,290.45Z" style="fill:rgb(174,175,174);fill-opacity:0.04;"/>
        </g>
        <g transform="matrix(1.489258,0,0,1.489258,0,0)">
            <path d="M369.471,300.261C367.696,301.525 367.696,301.503 367.554,301.626C366.136,302.851 365.639,302.025 364.398,303.414C365.636,300.194 366.033,300.09 369.471,300.261Z" style="fill:rgb(174,173,171);fill-opacity:0.07;"/>
        </g>
        <g transform="matrix(1.489258,0,0,1.489258,0,0)">
            <path d="M475.497,366.963L476.425,367.614C474.624,367.332 474.616,367.229 474.48,367.31C474.308,367.412 474.542,371.987 470.499,367.53C473.033,366.931 472.95,367.035 475.497,366.963Z" style="fill:rgb(182,124,92);fill-opacity:0.1;"/>
        </g>
        <g transform="matrix(1.489258,0,0,1.489258,0,0)">
            <path d="M750.437,324.522C751.79,328.846 747.993,327.132 746.436,327.104C746.84,326.617 747.244,326.129 747.649,325.642C748.578,325.269 749.508,324.895 750.437,324.522Z" style="fill:rgb(250,75,0);fill-opacity:0.09;"/>
        </g>
        <g transform="matrix(1.489258,0,0,1.489258,0,0)">
            <path d="M278.589,361.436C280.262,361.909 281.161,362.507 282.591,364.13C281.842,364.345 281.092,364.561 280.343,364.776L279.723,364.351C279.661,364.109 279.287,362.646 278.589,361.436Z" style="fill:rgb(151,151,150);fill-opacity:0.05;"/>
        </g>
        <g transform="matrix(1.489258,0,0,1.489258,0,0)">
            <path d="M436.158,320.54C437.211,321.81 436.941,322.17 438.331,322.335C438.01,323.039 438.163,323.027 437.693,323.735C434.382,328.726 436.098,320.817 436.158,320.54Z" style="fill:rgb(191,188,186);fill-opacity:0.13;"/>
        </g>
        <g transform="matrix(1.489258,0,0,1.489258,0,0)">
            <path d="M757.534,364.541C757.585,364.816 757.005,364.956 757.056,365.231C757.389,367.018 759.209,367.884 757.339,368.001C757.071,368.018 756.734,368.039 754.433,366.332C755.963,365.337 755.872,365.391 757.534,364.541Z" style="fill:rgb(177,52,0);fill-opacity:0.09;"/>
        </g>
        <g transform="matrix(1.489258,0,0,1.489258,0,0)">
            <path d="M687.376,300.938C691.485,299.818 690.889,301.855 692.495,303.506C692.05,303.397 690.196,302.941 687.376,300.938Z" style="fill:rgb(202,61,0);fill-opacity:0.1;"/>
        </g>
        <g transform="matrix(1.489258,0,0,1.489258,0,0)">
            <path d="M414.279,331.488C414.24,333.311 414.195,333.305 414.237,333.457C414.94,335.979 414.191,335.96 414.279,338.512C413.001,335.051 412.959,334.974 414.279,331.488Z" style="fill:rgb(163,163,162);fill-opacity:0.04;"/>
        </g>
        <g transform="matrix(1.489258,0,0,1.489258,0,0)">
            <path d="M734.325,317.125C734.311,317.858 734.296,318.591 734.282,319.324C733.657,319.462 733.032,319.599 732.408,319.737L731.46,318.36C732.73,317.419 732.726,317.519 734.325,317.125Z" style="fill:rgb(246,74,1);fill-opacity:0.05;"/>
        </g>
        <g transform="matrix(1.489258,0,0,1.489258,0,0)">
            <path d="M676.391,298.889C675.679,298.964 674.514,299.087 667.453,299.275C668.059,298.894 670.516,297.345 676.391,298.889Z" style="fill:rgb(195,58,0);fill-opacity:0.24;"/>
        </g>
        <g transform="matrix(1.489258,0,0,1.489258,0,0)">
            <path d="M636.514,272.089L637.189,271.5C637.332,271.309 639.859,267.945 640.037,270.625C640.049,270.801 639.978,270.777 639.233,272.68C637.847,272.231 637.934,272.306 636.514,272.089Z" style="fill:rgb(109,35,0);fill-opacity:0.09;"/>
        </g>
        <g transform="matrix(1.489258,0,0,1.489258,0,0)">
            <path d="M345.533,271.959C345.087,271.985 345.123,271.996 341.536,272.521C342.625,267.84 345.018,271.474 345.533,271.959Z" style="fill:rgb(88,88,87);fill-opacity:0.11;"/>
        </g>
        <g transform="matrix(1.489258,0,0,1.489258,0,0)">
            <path d="M437.561,343.35C436.807,344.372 436.868,344.29 436.438,345.477C434.592,341.181 436.98,341.682 437.203,341.874C437.295,341.953 437.23,341.983 437.561,343.35Z" style="fill:rgb(192,190,187);fill-opacity:0.09;"/>
        </g>
        <g transform="matrix(1.489258,0,0,1.489258,0,0)">
            <path d="M444.389,311.287C445.026,311.253 445.663,311.22 446.3,311.187C445.808,313.08 445.734,312.975 444.385,314.436C444.348,314.187 444.516,314.198 444.389,311.287Z" style="fill:rgb(191,186,183);fill-opacity:0.04;"/>
        </g>
        <g transform="matrix(1.489258,0,0,1.489258,0,0)">
            <path d="M512.439,317.961C512.008,318.319 511.9,317.725 511.439,318.108C510.723,318.703 511.23,318.996 510.525,319.551C510.011,319.957 507.727,318.705 507.504,318.584C509.959,317.887 509.923,318.01 512.439,317.961Z" style="fill:rgb(199,59,0);fill-opacity:0.11;"/>
        </g>
        <g transform="matrix(1.489258,0,0,1.489258,0,0)">
            <path d="M700.474,311.522C702.376,312.752 702.84,312.541 702.644,313.5C702.512,314.15 702.038,314.697 701.905,315.347C700.84,313.574 701.06,313.536 700.474,311.522Z" style="fill:rgb(216,63,0);fill-opacity:0.07;"/>
        </g>
        <g transform="matrix(1.489258,0,0,1.489258,0,0)">
            <path d="M497.838,381.495L498.153,382.534C498.487,384.071 498.263,384.03 498.543,385.503L498.433,390.487C497.87,384.674 497.658,384.724 497.838,381.495Z" style="fill:rgb(200,60,0);fill-opacity:0.29;"/>
        </g>
        <g transform="matrix(1.489258,0,0,1.489258,0,0)">
            <path d="M467.723,315.64C468.325,317.926 468.013,318.419 465.628,318.678C465.757,318.412 466.522,316.824 467.723,315.64Z" style="fill:rgb(197,147,120);fill-opacity:0.04;"/>
        </g>
        <g transform="matrix(1.489258,0,0,1.489258,0,0)">
            <path d="M679.59,318.431C681.143,319.408 681.278,319.399 681.477,321.515C679.72,320.498 679.495,320.474 679.59,318.431Z" style="fill:rgb(244,73,0);fill-opacity:0.04;"/>
        </g>
        <g transform="matrix(1.489258,0,0,1.489258,0,0)">
            <path d="M768.496,340.795C769.247,340.734 769.997,340.672 770.748,340.611C770.723,340.79 768.596,347.428 768.496,340.795Z" style="fill:rgb(223,65,0);fill-opacity:0.05;"/>
        </g>
        <g transform="matrix(1.489258,0,0,1.489258,0,0)">
            <path d="M498.434,336.526C499.39,338.989 499.777,339.058 498.69,341.473C498.562,340.825 498.434,340.178 498.306,339.53C498.349,338.528 498.392,337.527 498.434,336.526Z" style="fill:rgb(230,69,0);fill-opacity:0.05;"/>
        </g>
        <g transform="matrix(1.489258,0,0,1.489258,0,0)">
            <path d="M315.375,368.07C313.465,369.983 313.554,370.008 313.373,370.153C312.415,369.985 311.457,369.817 310.499,369.649C312.893,368.555 312.847,368.646 315.375,368.07Z" style="fill:rgb(157,156,155);fill-opacity:0.17;"/>
        </g>
        <g transform="matrix(1.489258,0,0,1.489258,0,0)">
            <path d="M737.494,369.649C740.528,369.378 740.469,369.539 743.5,369.509C740.523,370.631 740.485,370.634 737.494,369.649Z" style="fill:rgb(198,58,0);fill-opacity:0.16;"/>
        </g>
        <g transform="matrix(1.489258,0,0,1.489258,0,0)">
            <path d="M498.582,380.497C499.755,382.921 499.782,383.038 498.543,385.503C498.263,384.03 498.487,384.071 498.153,382.534C498.296,381.855 498.439,381.176 498.582,380.497Z" style="fill:rgb(188,57,0);fill-opacity:0.04;"/>
        </g>
        <g transform="matrix(1.489258,0,0,1.489258,0,0)">
            <path d="M289.44,367.642L290.456,367.614C291.466,367.948 292.475,368.282 293.485,368.616C293.248,368.683 290.527,369.456 290.527,369.456C290.386,369.362 290.666,369.259 289.44,367.642Z" style="fill:rgb(139,138,137);fill-opacity:0.05;"/>
        </g>
        <g transform="matrix(1.489258,0,0,1.489258,0,0)">
            <path d="M268.045,331.412C268.045,331.73 268.028,331.694 267.889,335.379C267.751,335.229 266.165,333.499 266.165,333.499C266.259,333.294 266.304,333.344 268.045,331.412Z" style="fill:rgb(157,159,158);fill-opacity:0.17;"/>
        </g>
        <g transform="matrix(1.489258,0,0,1.489258,0,0)">
            <path d="M619.005,365.555C619.836,366.234 620.668,366.914 621.499,367.594C617.826,368.249 617.767,367.658 617.853,367.379C618.064,366.692 618.794,366.242 619.005,365.555Z" style="fill:rgb(228,67,0);fill-opacity:0.18;"/>
        </g>
        <g transform="matrix(1.489258,0,0,1.489258,0,0)">
            <path d="M665.625,318.575C665.71,322.042 665.72,322.023 665.702,322.333C664.415,320.483 664.013,320.111 665.625,318.575Z" style="fill:rgb(240,72,0);fill-opacity:0.08;"/>
        </g>
        <g transform="matrix(1.489258,0,0,1.489258,0,0)">
            <path d="M619.003,328.422L619.006,331.574C616.911,330.515 616.881,329.518 619.003,328.422Z" style="fill:rgb(211,62,0);fill-opacity:0.13;"/>
        </g>
        <g transform="matrix(1.489258,0,0,1.489258,0,0)">
            <path d="M315.562,298.188C317.083,299.853 317.21,299.611 317.321,299.765C315.4,299.599 315.467,299.604 313.519,299.367C314.2,298.974 314.881,298.581 315.562,298.188Z" style="fill:rgb(170,169,169);fill-opacity:0.15;"/>
        </g>
        <g transform="matrix(1.489258,0,0,1.489258,0,0)">
            <path d="M592.772,302.647C592.927,303.27 593.082,303.893 593.237,304.517L593.164,305.529C592.46,304.693 589.954,304.333 592.772,302.647Z" style="fill:rgb(216,65,0);fill-opacity:0.07;"/>
        </g>
        <g transform="matrix(1.489258,0,0,1.489258,0,0)">
            <path d="M720.486,302.398L721.48,302.431C720.035,303.58 720.145,303.624 718.459,304.46L718.732,303.623C719.317,303.214 719.901,302.806 720.486,302.398Z" style="fill:rgb(233,69,0);fill-opacity:0.18;"/>
        </g>
        <g transform="matrix(1.489258,0,0,1.489258,0,0)">
            <path d="M725.437,367.647C726.627,368.299 729.273,368.971 729.615,369.058C727.13,369.566 726.788,369.761 725.437,367.647Z" style="fill:rgb(180,52,0);fill-opacity:0.1;"/>
        </g>
        <g transform="matrix(1.489258,0,0,1.489258,0,0)">
            <path d="M549.556,339.498C549.597,341.597 549.595,341.498 549.377,343.531C547.98,341.687 548.466,341.489 549.556,339.498Z" style="fill:rgb(237,71,0);fill-opacity:0.15;"/>
        </g>
        <g transform="matrix(1.489258,0,0,1.489258,0,0)">
            <path d="M272.338,315.353C271.631,317.095 271.662,317.048 270.601,318.534C270.45,316.354 270.108,315.642 272.338,315.353Z" style="fill:rgb(134,134,136);fill-opacity:0.06;"/>
        </g>
        <g transform="matrix(1.489258,0,0,1.489258,0,0)">
            <path d="M362.63,358.495C363.378,361.03 363.358,361.029 362.605,363.505C362.53,362.261 362.565,359.412 362.63,358.495Z" style="fill:rgb(140,139,138);fill-opacity:0.09;"/>
        </g>
        <g transform="matrix(1.489258,0,0,1.489258,0,0)">
            <path d="M646.307,312.399C645.095,314.292 645.699,314.493 644.598,316.526C644.458,314.055 644.265,313.762 646.307,312.399Z" style="fill:rgb(174,52,0);fill-opacity:0.12;"/>
        </g>
        <g transform="matrix(1.489258,0,0,1.489258,0,0)">
            <path d="M498.653,327.522C498.618,328.248 499.642,328.757 499.607,329.483C499.607,329.483 498.021,331.401 497.883,331.568C498.13,330.508 497.629,330.558 497.862,329.559C497.902,329.389 497.921,329.408 498.653,327.522Z" style="fill:rgb(228,67,0);fill-opacity:0.16;"/>
        </g>
        <g transform="matrix(1.489258,0,0,1.489258,0,0)">
            <path d="M388.191,365.509L388.504,367.492C388.368,367.464 386.797,367.14 386.797,367.14C385.243,366.443 386.667,366.198 388.191,365.509Z" style="fill:rgb(132,129,127);fill-opacity:0.05;"/>
        </g>
        <g transform="matrix(1.489258,0,0,1.489258,0,0)">
            <path d="M675.504,325.291C677.68,324.686 677.878,323.908 679.545,325.344C678.863,325.414 678.181,325.483 677.499,325.552C676.834,325.465 676.169,325.378 675.504,325.291Z" style="fill:rgb(217,65,0);fill-opacity:0.09;"/>
        </g>
        <g transform="matrix(1.489258,0,0,1.489258,0,0)">
            <path d="M518.499,369.542C521.098,369.321 521.077,369.205 521.303,369.205C521.284,369.218 521.491,371.052 517.439,370.011L518.499,369.542Z" style="fill:rgb(209,61,0);fill-opacity:0.08;"/>
        </g>
        <g transform="matrix(1.489258,0,0,1.489258,0,0)">
            <path d="M663.517,369.459L665.499,369.387C666.166,369.469 666.833,369.551 667.5,369.634C665.357,370.231 665.089,371.053 663.517,369.459Z" style="fill:rgb(209,62,0);fill-opacity:0.09;"/>
        </g>
        <g transform="matrix(1.489258,0,0,1.489258,0,0)">
            <path d="M675.497,369.644C677.574,369.454 677.512,369.462 679.528,369.601C677.811,371.012 677.629,370.222 675.497,369.644Z" style="fill:rgb(206,61,0);fill-opacity:0.12;"/>
        </g>
        <g transform="matrix(1.489258,0,0,1.489258,0,0)">
            <path d="M397.586,302.393C400.086,302.817 399.323,303.653 399.288,304.657C397.768,303.349 397.755,303.432 397.637,303.309L397.586,302.393Z" style="fill:rgb(156,155,154);fill-opacity:0.05;"/>
        </g>
        <g transform="matrix(1.489258,0,0,1.489258,0,0)">
            <path d="M659.706,300.773C660.281,300.359 660.057,298.956 663.399,300.169C663.114,300.26 661.547,300.763 659.706,300.773Z" style="fill:rgb(218,65,0);fill-opacity:0.09;"/>
        </g>
        <g transform="matrix(1.489258,0,0,1.489258,0,0)">
            <path d="M658.497,343.4C657.862,343.542 657.964,344.022 653.442,344.125C655.868,343.229 655.858,343.374 658.497,343.4Z" style="fill:rgb(202,61,0);fill-opacity:0.24;"/>
        </g>
        <g transform="matrix(1.489258,0,0,1.489258,0,0)">
            <path d="M753.723,344.855C755.256,345.445 755.225,345.34 756.56,346.346C755.543,346.101 754.527,345.856 753.51,345.61L753.723,344.855Z" style="fill:rgb(227,69,0);fill-opacity:0.2;"/>
        </g>
        <g transform="matrix(1.489258,0,0,1.489258,0,0)">
            <path d="M414.271,315.488C414.278,318.044 414.293,317.96 414.381,320.491L413.847,319.439C413.395,317.428 413.727,317.476 414.271,315.488Z" style="fill:rgb(149,149,147);fill-opacity:0.07;"/>
        </g>
        <g transform="matrix(1.489258,0,0,1.489258,0,0)">
            <path d="M268.978,345.362C269.165,346.476 269.566,346.259 269.768,347.455C269.792,347.599 269.773,347.59 269.841,349.27C269.544,348.875 268.919,348.822 268.622,348.427C268.474,348.23 268.381,348.105 268.978,345.362Z" style="fill:rgb(137,137,135);fill-opacity:0.09;"/>
        </g>
        <g transform="matrix(1.489258,0,0,1.489258,0,0)">
            <path d="M380.423,297.805C382.636,297.392 382.766,296.865 384.566,298.192C383.537,298.218 382.508,298.244 381.479,298.27L380.423,297.805Z" style="fill:rgb(135,135,133);fill-opacity:0.05;"/>
        </g>
        <g transform="matrix(1.489258,0,0,1.489258,0,0)">
            <path d="M746.476,319.525C747.986,321.06 748.2,320.8 749.345,322.606C748.142,321.84 748.193,321.875 746.879,321.333C746.744,320.731 746.61,320.128 746.476,319.525Z" style="fill:rgb(236,69,0);fill-opacity:0.22;"/>
        </g>
        <g transform="matrix(1.489258,0,0,1.489258,0,0)">
            <path d="M451.271,361.626C452.419,362.561 452.387,362.517 453.314,363.723C451.702,363.39 451.615,363.311 451.271,361.626Z" style="fill:rgb(182,167,158);fill-opacity:0.12;"/>
        </g>
        <g transform="matrix(1.489258,0,0,1.489258,0,0)">
            <path d="M318.751,328.379C318.899,328.484 320.602,329.69 320.602,329.69C320.865,329.764 321.039,329.191 321.302,329.265C320.829,329.373 320.953,330.356 320.481,330.464C320.319,330.501 320.345,330.393 318.641,329.5L318.751,328.379Z" style="fill:rgb(163,162,162);fill-opacity:0.11;"/>
        </g>
        <g transform="matrix(1.489258,0,0,1.489258,0,0)">
            <path d="M409.799,324.438C411.186,326.245 410.351,326.364 409.762,328.509C409.742,326.437 409.823,326.52 409.799,324.438Z" style="fill:rgb(148,146,146);fill-opacity:0.09;"/>
        </g>
        <g transform="matrix(1.489258,0,0,1.489258,0,0)">
            <path d="M613.709,323.491C614.312,326.006 614.292,325.998 613.709,328.509C613.701,328.107 613.652,325.489 613.709,323.491Z" style="fill:rgb(195,58,0);fill-opacity:0.24;"/>
        </g>
        <g transform="matrix(1.489258,0,0,1.489258,0,0)">
            <path d="M613.712,333.49C614.311,336.029 614.297,336.023 613.709,338.508L613.712,333.49Z" style="fill:rgb(193,57,0);fill-opacity:0.24;"/>
        </g>
        <g transform="matrix(1.489258,0,0,1.489258,0,0)">
            <path d="M414.428,272.396C414.421,275.273 414.462,275.257 414.423,275.502C414.359,275.27 413.624,272.594 413.624,272.594C413.801,272.383 414.25,272.608 414.428,272.396Z" style="fill:rgb(141,138,135);fill-opacity:0.07;"/>
        </g>
        <g transform="matrix(1.489258,0,0,1.489258,0,0)">
            <path d="M753.416,301.913C753.976,301.856 755.195,300.695 755.611,303.331C754.377,302.759 754.458,302.824 753.416,301.913Z" style="fill:rgb(220,67,0);fill-opacity:0.1;"/>
        </g>
        <g transform="matrix(1.489258,0,0,1.489258,0,0)">
            <path d="M475.497,366.963C476.092,366.794 476.686,366.624 477.281,366.455L477.178,368.517L476.523,369.499C476.49,368.87 476.457,368.242 476.425,367.614L475.497,366.963Z" style="fill:rgb(211,117,75);fill-opacity:0.26;"/>
        </g>
        <g transform="matrix(1.489258,0,0,1.489258,0,0)">
            <path d="M517.384,298.911C512.841,299.064 512.853,299.129 512.459,299.138C514.879,298.323 514.876,298.302 517.384,298.911Z" style="fill:rgb(199,60,0);fill-opacity:0.29;"/>
        </g>
        <g transform="matrix(1.489258,0,0,1.489258,0,0)">
            <path d="M678.484,299.207C680.554,298.662 680.552,298.741 682.404,299.751C679.293,299.303 679.32,299.291 678.484,299.207Z" style="fill:rgb(207,61,0);fill-opacity:0.24;"/>
        </g>
        <g transform="matrix(1.489258,0,0,1.489258,0,0)">
            <path d="M613.741,312.469C614.732,314.241 614.406,314.321 613.704,316.509C613.667,313.712 613.664,313.73 613.664,313.488C613.664,312.977 613.741,313.076 613.741,312.469Z" style="fill:rgb(197,59,0);fill-opacity:0.24;"/>
        </g>
        <g transform="matrix(1.489258,0,0,1.489258,0,0)">
            <path d="M498.01,335.615L498.434,336.526C498.392,337.527 498.349,338.528 498.306,339.53C497.856,337.565 497.903,337.646 498.01,335.615Z" style="fill:rgb(232,70,0);fill-opacity:0.3;"/>
        </g>
        <g transform="matrix(1.489258,0,0,1.489258,0,0)">
            <path d="M498.614,375.495C499.184,377.514 499.184,377.487 498.591,379.504C498.569,379.184 498.451,377.5 498.614,375.495Z" style="fill:rgb(180,54,0);fill-opacity:0.09;"/>
        </g>
        <g transform="matrix(1.489258,0,0,1.489258,0,0)">
            <path d="M498.585,370.489C499.209,372.51 499.211,372.486 498.62,374.505C498.495,372.5 498.571,370.81 498.585,370.489Z" style="fill:rgb(181,54,0);fill-opacity:0.08;"/>
        </g>
        <g transform="matrix(1.489258,0,0,1.489258,0,0)">
            <path d="M677.499,325.552C678.181,325.483 678.863,325.414 679.545,325.344L681.508,325.932L680.595,326.078C679.563,325.902 678.531,325.727 677.499,325.552Z" style="fill:rgb(220,66,0);fill-opacity:0.32;"/>
        </g>
        <g transform="matrix(1.489258,0,0,1.489258,0,0)">
            <path d="M642.423,347.495C642.482,348.481 642.541,349.467 642.599,350.452C642.437,349.985 642.032,350.568 641.871,350.107C641.801,349.905 641.912,349.914 642.423,347.495Z" style="fill:rgb(246,72,0);fill-opacity:0.21;"/>
        </g>
        <g transform="matrix(1.489258,0,0,1.489258,0,0)">
            <path d="M591.616,363.686C592.081,363.665 592.087,362.672 592.552,362.65C592.552,362.65 593.305,364.386 593.37,364.536C593.246,364.442 593.232,364.539 591.616,363.686Z" style="fill:rgb(203,58,0);fill-opacity:0.13;"/>
        </g>
        <g transform="matrix(1.489258,0,0,1.489258,0,0)">
            <path d="M316.282,345.227C315.482,346.145 315.482,346.106 314.256,346.305C315.147,345.529 315.053,345.47 316.282,345.227Z" style="fill:rgb(174,174,171);fill-opacity:0.09;"/>
        </g>
        <g transform="matrix(1.489258,0,0,1.489258,0,0)">
            <path d="M659.7,368.164C660.407,368.298 660.34,368.328 662.552,369.155C660.957,369.212 661.032,368.991 659.7,368.164Z" style="fill:rgb(232,70,0);fill-opacity:0.21;"/>
        </g>
        <g transform="matrix(1.489258,0,0,1.489258,0,0)">
            <path d="M375.458,298.418C376.156,298.534 376.855,298.651 377.553,298.768C375.115,299.077 375.218,299.105 374.396,299.111C374.75,298.88 375.104,298.649 375.458,298.418Z" style="fill:rgb(157,157,156);fill-opacity:0.26;"/>
        </g>
        <g transform="matrix(1.489258,0,0,1.489258,0,0)">
            <path d="M362.669,294.492C363.212,296.481 363.23,296.454 362.681,298.508L362.669,294.492Z" style="fill:rgb(137,137,136);fill-opacity:0.13;"/>
        </g>
        <g transform="matrix(1.489258,0,0,1.489258,0,0)">
            <path d="M362.652,353.494C363.137,355.524 363.134,355.486 362.628,357.505C362.636,356.168 362.644,354.831 362.652,353.494Z" style="fill:rgb(133,133,132);fill-opacity:0.18;"/>
        </g>
        <g transform="matrix(1.489258,0,0,1.489258,0,0)">
            <path d="M270.328,349.57C270.857,350.46 271.386,351.35 271.915,352.241C271.452,351.659 270.989,351.076 270.526,350.494L270.328,349.57Z" style="fill:rgb(148,148,147);fill-opacity:0.29;"/>
        </g>
        <g transform="matrix(1.489258,0,0,1.489258,0,0)">
            <path d="M362.674,337.491C363.199,339.486 363.214,339.457 362.683,341.508L362.674,337.491Z" style="fill:rgb(137,137,136);fill-opacity:0.15;"/>
        </g>
        <g transform="matrix(1.489258,0,0,1.489258,0,0)">
            <path d="M362.683,342.493C363.192,344.52 363.189,344.488 362.664,346.508L362.683,342.493Z" style="fill:rgb(136,135,135);fill-opacity:0.16;"/>
        </g>
        <g transform="matrix(1.489258,0,0,1.489258,0,0)">
            <path d="M414.311,294.491L414.302,298.509C413.795,296.513 413.781,296.544 414.311,294.491Z" style="fill:rgb(139,139,138);fill-opacity:0.13;"/>
        </g>
        <g transform="matrix(1.489258,0,0,1.489258,0,0)">
            <path d="M284.427,365.577C285.611,365.785 285.563,365.72 286.523,366.423C285.293,366.341 285.347,366.331 284.427,365.577Z" style="fill:rgb(155,156,155);fill-opacity:0.12;"/>
        </g>
        <g transform="matrix(1.489258,0,0,1.489258,0,0)">
            <path d="M571.491,369.607C572.829,369.619 574.167,369.63 575.504,369.642C573.464,370.076 573.518,370.071 571.491,369.607Z" style="fill:rgb(183,54,0);fill-opacity:0.24;"/>
        </g>
        <g transform="matrix(1.489258,0,0,1.489258,0,0)">
            <path d="M514.495,369.643L518.499,369.542L517.439,370.011C516.458,369.889 515.477,369.766 514.495,369.643Z" style="fill:rgb(181,53,0);fill-opacity:0.25;"/>
        </g>
        <g transform="matrix(1.489258,0,0,1.489258,0,0)">
            <path d="M477.165,345.503C477.167,346.503 477.17,347.503 477.173,348.502L476.488,347.499C476.713,346.834 476.939,346.169 477.165,345.503Z" style="fill:rgb(213,69,19);fill-opacity:0.38;"/>
        </g>
        <g transform="matrix(1.489258,0,0,1.489258,0,0)">
            <path d="M476.533,381.503C476.47,384.499 476.474,384.431 476.467,384.501C476.102,383 476.051,383.015 476.533,381.503Z" style="fill:rgb(190,70,16);fill-opacity:0.11;"/>
        </g>
        <g transform="matrix(1.489258,0,0,1.489258,0,0)">
            <path d="M409.847,355.446C410.297,356.925 410.406,356.852 410.07,358.43C409.996,357.436 409.922,356.441 409.847,355.446Z" style="fill:rgb(160,158,156);fill-opacity:0.15;"/>
        </g>
        <g transform="matrix(1.489258,0,0,1.489258,0,0)">
            <path d="M311.49,297.105C310.817,297.481 310.144,297.858 309.471,298.234L308.506,298.327C309.501,297.919 310.496,297.512 311.49,297.105Z" style="fill:rgb(118,118,117);fill-opacity:0.06;"/>
        </g>
        <g transform="matrix(1.489258,0,0,1.489258,0,0)">
            <path d="M296.443,369.679C297.132,369.583 297.821,369.488 298.51,369.393C297.896,369.641 297.282,369.89 296.669,370.139L296.443,369.679Z" style="fill:rgb(161,160,159);fill-opacity:0.17;"/>
        </g>
        <g transform="matrix(1.489258,0,0,1.489258,0,0)">
            <path d="M290.456,367.614C292.047,367.912 291.974,367.895 293.485,368.616C292.475,368.282 291.466,367.948 290.456,367.614Z" style="fill:rgb(158,158,157);fill-opacity:0.33;"/>
        </g>
        <g transform="matrix(1.489258,0,0,1.489258,0,0)">
            <path d="M364.505,324.502C364.225,327.223 364.19,327.147 364.174,327.378C363.874,325.911 364.013,325.937 364.505,324.502Z" style="fill:rgb(121,121,120);fill-opacity:0.1;"/>
        </g>
        <g transform="matrix(1.489258,0,0,1.489258,0,0)">
            <path d="M662.552,369.155C664.099,368.97 664.028,369.088 665.499,369.387L663.517,369.459L662.552,369.155Z" style="fill:rgb(222,67,0);fill-opacity:0.31;"/>
        </g>
        <g transform="matrix(1.489258,0,0,1.489258,0,0)">
            <path d="M414.394,362.49L414.416,365.509C414.034,364.009 414.045,364.047 414.394,362.49Z" style="fill:rgb(149,146,145);fill-opacity:0.15;"/>
        </g>
        <g transform="matrix(1.489258,0,0,1.489258,0,0)">
            <path d="M708.521,353.49C708.845,354.162 709.17,354.833 709.494,355.505C709.17,354.833 708.845,354.162 708.521,353.49Z" style="fill:rgb(219,63,0);fill-opacity:0.32;"/>
        </g>
        <g transform="matrix(1.489258,0,0,1.489258,0,0)">
            <path d="M500.481,344.515C500.873,345.135 501.265,345.754 501.658,346.373C501.265,345.754 500.873,345.135 500.481,344.515Z" style="fill:rgb(200,60,0);fill-opacity:0.18;"/>
        </g>
        <g transform="matrix(1.489258,0,0,1.489258,0,0)">
            <path d="M671.281,351.792L671.553,352.238C670.885,352.246 670.217,352.253 669.549,352.261C670.127,352.104 670.704,351.948 671.281,351.792Z" style="fill:rgb(226,67,0);fill-opacity:0.28;"/>
        </g>
        <g transform="matrix(1.489258,0,0,1.489258,0,0)">
            <path d="M733.463,350.612C734.372,350.771 734.262,350.798 736.477,351.56C734.849,351.292 734.973,351.236 733.463,350.612Z" style="fill:rgb(177,52,0);fill-opacity:0.25;"/>
        </g>
        <g transform="matrix(1.489258,0,0,1.489258,0,0)">
            <path d="M310.499,369.649C311.457,369.817 312.415,369.985 313.373,370.153C311.796,370.118 311.913,370.05 310.499,369.649Z" style="fill:rgb(125,125,124);fill-opacity:0.07;"/>
        </g>
        <g transform="matrix(1.489258,0,0,1.489258,0,0)">
            <path d="M742.291,298.936L742.539,299.263L740.503,299.418C741.099,299.257 741.695,299.097 742.291,298.936Z" style="fill:rgb(209,62,0);fill-opacity:0.31;"/>
        </g>
        <g transform="matrix(1.489258,0,0,1.489258,0,0)">
            <path d="M323.585,339.336C325.294,339.788 325.289,339.769 325.431,339.824C326.066,340.073 325.853,340.277 326.491,340.528C325.25,340.261 325.333,340.163 323.585,339.336Z" style="fill:rgb(126,125,125);fill-opacity:0.23;"/>
        </g>
        <g transform="matrix(1.489258,0,0,1.489258,0,0)">
            <path d="M436.812,358.464C437.001,359.543 437.246,359.503 436.76,360.557L436.812,358.464Z" style="fill:rgb(150,143,139);fill-opacity:0.07;"/>
        </g>
        <g transform="matrix(1.489258,0,0,1.489258,0,0)">
            <path d="M394.373,300.895L395.334,301.942C395.007,301.782 395.02,302.159 394.74,302.022C394.641,301.974 394.74,302.022 393.605,301.251L394.373,300.895Z" style="fill:rgb(154,153,152);fill-opacity:0.29;"/>
        </g>
        <g transform="matrix(1.489258,0,0,1.489258,0,0)">
            <path d="M592.772,302.647L593.103,302.387C593.148,303.097 593.193,303.807 593.237,304.517C593.082,303.893 592.927,303.27 592.772,302.647Z" style="fill:rgb(217,65,0);fill-opacity:0.32;"/>
        </g>
    </g>
</svg>
