<svg xmlns="http://www.w3.org/2000/svg" viewBox="0 0 1536 1024">
<g fill="black">
<path d="M 638 690 L 641 695 L 655 698 L 891 697 L 896 694 L 899 687 L 897 679 L 891 674 L 856 673 L 841 660 L 691 660 L 676 673 L 645 674 L 639 679 Z"/>
<path d="M 548 488 L 550 497 L 558 502 L 652 502 L 663 490 L 681 526 L 689 533 L 700 534 L 710 525 L 731 446 L 767 583 L 780 596 L 790 593 L 819 495 L 830 502 L 975 502 L 984 492 L 981 482 L 974 478 L 835 478 L 820 463 L 809 462 L 800 469 L 780 536 L 745 398 L 736 386 L 725 387 L 719 395 L 692 493 L 676 457 L 669 451 L 656 453 L 639 478 L 558 478 Z"/>
<path d="M 635 322 L 634 323 L 631 323 L 630 324 L 629 324 L 625 328 L 625 329 L 624 330 L 624 333 L 623 334 L 623 335 L 624 336 L 624 340 L 625 341 L 625 342 L 628 345 L 629 345 L 631 347 L 633 347 L 634 348 L 638 348 L 639 347 L 641 347 L 642 346 L 643 346 L 647 342 L 647 340 L 648 339 L 648 336 L 649 335 L 648 334 L 648 330 L 647 329 L 647 328 L 643 324 L 642 324 L 641 323 L 639 323 L 638 322 Z"/>
<path d="M 596 322 L 595 323 L 592 323 L 591 324 L 590 324 L 586 328 L 586 329 L 585 330 L 585 332 L 584 333 L 584 336 L 585 337 L 585 340 L 587 342 L 587 343 L 590 346 L 591 346 L 592 347 L 594 347 L 595 348 L 599 348 L 600 347 L 602 347 L 604 345 L 605 345 L 607 343 L 607 342 L 608 341 L 608 340 L 609 339 L 609 330 L 608 329 L 608 328 L 604 324 L 603 324 L 602 323 L 597 323 Z"/>
<path d="M 559 322 L 558 322 L 557 323 L 553 323 L 552 324 L 551 324 L 547 328 L 547 329 L 546 330 L 546 332 L 545 333 L 545 336 L 546 337 L 546 340 L 547 341 L 547 342 L 551 346 L 552 346 L 553 347 L 555 347 L 556 348 L 560 348 L 561 347 L 563 347 L 564 346 L 565 346 L 569 342 L 569 340 L 570 339 L 570 337 L 571 336 L 571 333 L 570 332 L 570 330 L 569 329 L 569 328 L 565 324 L 564 324 L 563 323 L 560 323 Z"/>
<path d="M 997 294 L 996 295 L 989 298 L 982 305 L 982 306 L 980 308 L 980 309 L 978 312 L 978 314 L 977 315 L 977 319 L 976 320 L 976 326 L 977 327 L 977 331 L 978 332 L 978 334 L 979 335 L 981 340 L 983 342 L 983 343 L 987 347 L 988 347 L 991 350 L 992 350 L 995 352 L 997 352 L 998 353 L 1000 353 L 1001 354 L 1016 354 L 1017 353 L 1022 352 L 1023 351 L 1026 350 L 1028 348 L 1029 348 L 1034 343 L 1034 342 L 1036 340 L 1036 339 L 1039 334 L 1039 331 L 1040 330 L 1040 317 L 1039 316 L 1039 313 L 1038 312 L 1037 309 L 1035 307 L 1035 306 L 1027 298 L 1026 298 L 1022 295 L 1020 295 L 1019 294 L 1016 294 L 1015 293 L 1001 293 L 1000 294 Z"/>
<path d="M 499 306 L 493 602 L 513 634 L 541 641 L 1005 640 L 1035 619 L 1040 377 L 1031 370 L 1016 377 L 1016 602 L 1003 616 L 527 614 L 517 598 L 517 328 L 524 315 L 958 310 L 965 294 L 950 286 L 536 286 Z"/>
</g></svg>