<svg xmlns="http://www.w3.org/2000/svg" viewBox="0 0 1536 1024">
<g fill="black">
<path d="M 819 447 L 818 511 L 820 523 L 826 536 L 836 545 L 848 549 L 865 549 L 872 547 L 883 538 L 884 545 L 912 546 L 913 448 L 883 448 L 883 508 L 880 514 L 874 519 L 863 521 L 855 518 L 849 510 L 848 448 Z"/>
<path d="M 1077 449 L 1067 455 L 1058 464 L 1051 478 L 1048 499 L 1049 509 L 1054 524 L 1065 538 L 1078 546 L 1088 549 L 1109 549 L 1118 547 L 1132 539 L 1140 531 L 1145 522 L 1120 514 L 1116 519 L 1111 522 L 1104 524 L 1096 524 L 1089 522 L 1082 516 L 1079 508 L 1080 507 L 1147 507 L 1148 496 L 1147 483 L 1143 471 L 1138 463 L 1130 455 L 1120 449 L 1109 446 L 1087 446 Z"/>
<path d="M 978 450 L 967 458 L 961 468 L 959 479 L 963 492 L 968 498 L 979 504 L 1013 512 L 1016 515 L 1016 520 L 1010 524 L 1000 525 L 989 521 L 986 518 L 984 512 L 957 514 L 956 516 L 961 531 L 966 538 L 974 544 L 989 549 L 1012 549 L 1030 543 L 1037 538 L 1045 526 L 1046 511 L 1043 502 L 1036 494 L 1027 489 L 996 483 L 991 481 L 988 477 L 990 473 L 995 470 L 1007 470 L 1015 476 L 1017 482 L 1035 480 L 1045 481 L 1047 480 L 1046 474 L 1041 462 L 1029 451 L 1014 446 L 991 446 Z"/>
<path d="M 430 448 L 419 454 L 409 464 L 401 480 L 399 489 L 399 506 L 405 525 L 416 538 L 433 547 L 442 549 L 462 549 L 479 544 L 487 539 L 496 530 L 505 512 L 476 505 L 473 512 L 464 520 L 455 522 L 444 521 L 434 513 L 431 507 L 430 490 L 434 481 L 438 477 L 445 473 L 451 472 L 459 473 L 467 477 L 471 481 L 475 489 L 504 483 L 500 469 L 488 455 L 473 447 L 464 445 L 442 445 Z"/>
<path d="M 922 405 L 922 546 L 923 545 L 926 545 L 927 546 L 928 545 L 934 545 L 935 546 L 936 545 L 942 545 L 943 546 L 944 545 L 951 545 L 951 542 L 952 541 L 952 528 L 951 527 L 952 525 L 951 524 L 952 523 L 951 522 L 951 405 Z"/>
<path d="M 617 406 L 618 546 L 648 545 L 649 508 L 678 545 L 709 545 L 711 547 L 710 583 L 741 583 L 741 540 L 753 548 L 774 549 L 790 543 L 802 532 L 812 510 L 813 489 L 805 466 L 794 454 L 776 446 L 754 447 L 741 456 L 740 447 L 680 447 L 649 484 L 648 405 Z"/>
<path d="M 508 405 L 508 545 L 539 545 L 539 487 L 545 477 L 555 472 L 570 475 L 577 484 L 578 545 L 609 545 L 609 482 L 602 462 L 589 450 L 574 445 L 554 446 L 539 455 L 538 405 Z"/>
</g></svg>